<svg width="28" height="50" viewBox="0 0 28 50" xmlns="http://www.w3.org/2000/svg">
<path d="M18.9122 35.4286C21.4993 34.8659 23.9664 33.8817 26.2062 32.5191L26.1122 32.5728C26.8949 32.0656 27.4408 31.2862 27.634 30.3999C27.8272 29.5135 27.6526 28.5899 27.1472 27.8248C26.6418 27.0597 25.8453 26.5134 24.9266 26.3017C24.0079 26.0899 23.0393 26.2294 22.2262 26.6905L22.2422 26.681C19.8742 28.1204 16.9922 28.9733 13.9022 28.9733C10.8122 28.9733 7.92816 28.1185 5.49816 26.6445L5.56216 26.681C4.75124 26.1917 3.77135 26.0296 2.83619 26.2299C1.90103 26.4303 1.08647 26.9768 0.570157 27.7505L0.562157 27.7639V27.7735C0.0503982 28.5506 -0.11908 29.4905 0.090848 30.3872C0.300776 31.2839 0.872995 32.0643 1.68216 32.5575L1.69616 32.5651C3.86105 33.8805 6.24271 34.835 8.74016 35.3884L8.89616 35.4171L1.95816 42.0584C1.61693 42.3793 1.34598 42.7623 1.16122 43.1849C0.97645 43.6075 0.881576 44.0612 0.882158 44.5194C0.882158 45.4566 1.27216 46.3057 1.90216 46.9267L1.96216 46.9842C2.61416 47.611 3.51616 47.9981 4.51216 47.9981C5.50816 47.9981 6.41016 47.611 7.06216 46.9842L13.9042 40.4599L20.7042 46.988C21.041 47.311 21.4409 47.5672 21.8811 47.742C22.3212 47.9168 22.793 48.0068 23.2695 48.0069C23.7459 48.007 24.2177 47.9171 24.6579 47.7425C25.0982 47.5678 25.4982 47.3118 25.8352 46.989C26.1721 46.6662 26.4395 46.2829 26.6219 45.8611C26.8043 45.4393 26.8982 44.9872 26.8983 44.5306C26.8984 44.074 26.8047 43.6218 26.6224 43.2C26.4402 42.7781 26.173 42.3947 25.8362 42.0718L18.9122 35.4286ZM13.9022 25.7456C16.3518 25.7433 18.7457 25.0451 20.7813 23.7393C22.8169 22.4334 24.4028 20.5785 25.3386 18.409C26.2744 16.2395 26.518 13.8528 26.0387 11.5507C25.5593 9.24851 24.3785 7.13423 22.6456 5.47508C20.9126 3.81592 18.7052 2.68638 16.3025 2.22923C13.8998 1.77209 11.4096 2.00786 9.14671 2.90675C6.8838 3.80563 4.94976 5.32728 3.58908 7.27935C2.2284 9.23141 1.50216 11.5262 1.50216 13.8738V13.8853C1.50851 17.033 2.81775 20.0496 5.14251 22.2732C7.46727 24.4968 10.6176 25.7456 13.9022 25.7456ZM13.9022 8.95945C14.9164 8.95945 15.908 9.24759 16.7514 9.78746C17.5949 10.3273 18.2524 11.0947 18.6409 11.9926C19.0294 12.8904 19.1315 13.8786 18.9342 14.832C18.7369 15.7854 18.2491 16.6615 17.5324 17.3493C16.8158 18.0372 15.9025 18.506 14.9079 18.6966C13.9133 18.8871 12.8821 18.7908 11.9445 18.4199C11.007 18.049 10.2053 17.4201 9.64061 16.6126C9.07595 15.8051 8.77374 14.8554 8.77216 13.8834V13.8795C8.77216 12.5753 9.31251 11.3245 10.2745 10.4019C11.2364 9.47928 12.5412 8.96047 13.9022 8.95945Z" />
</svg>
