<svg viewBox="0 0 49 50" xmlns="http://www.w3.org/2000/svg">
<path fill-rule="evenodd" clip-rule="evenodd" d="M37.7363 41.2292V41.225L37.7731 41.1354L43.8961 9.63545V9.53545C43.8961 8.75003 43.6102 8.06461 42.9936 7.6542C42.4526 7.29378 41.8299 7.26878 41.393 7.30211C40.9863 7.33965 40.585 7.4235 40.1966 7.55211C40.0309 7.6066 39.8675 7.66776 39.7066 7.73545L39.68 7.74586L5.54335 21.4104L5.53314 21.4146C5.42936 21.4508 5.32777 21.4932 5.22893 21.5417C4.98616 21.653 4.75323 21.7854 4.53273 21.9375C4.09377 22.2459 3.25873 22.9709 3.3996 24.1209C3.51598 25.075 4.1591 25.6792 4.59398 25.9938C4.85066 26.1773 5.12664 26.3311 5.41677 26.4521L5.4821 26.4813L5.50252 26.4875L5.51681 26.4938L11.4907 28.5459C11.4703 28.9271 11.5071 29.3167 11.6071 29.7021L14.5981 41.2834C14.7615 41.9147 15.1146 42.4779 15.6078 42.8939C16.101 43.3099 16.7095 43.5579 17.3478 43.6029C17.9862 43.648 18.6223 43.4879 19.1669 43.1451C19.7115 42.8023 20.1372 42.294 20.3842 41.6917L25.0556 36.5959L33.0773 42.8709L33.1916 42.9209C33.9205 43.2459 34.6003 43.3479 35.2231 43.2625C35.8458 43.175 36.3399 42.9084 36.7114 42.6063C37.1412 42.2507 37.4838 41.7977 37.7118 41.2834L37.7282 41.2479L37.7343 41.2354L37.7363 41.2292ZM14.5675 28.9063C14.5344 28.7778 14.5423 28.6418 14.59 28.5182C14.6377 28.3946 14.7228 28.2897 14.8329 28.2188L35.0883 15.0938C35.0883 15.0938 36.2806 14.3542 36.2378 15.0938C36.2378 15.0938 36.4501 15.2229 35.8111 15.8292C35.2067 16.4063 21.3744 30.0334 19.9738 31.4125C19.896 31.4897 19.8414 31.588 19.8166 31.6959L17.5586 40.4875L14.5675 28.9063Z" />
</svg>
