<svg viewBox="0 0 50 50" fill="#FDFDFD" xmlns="http://www.w3.org/2000/svg">
<path d="M16.5939 12.9209C16.2067 12.8645 15.8119 12.9424 15.4752 13.1417H15.446C14.6648 13.6 13.9606 14.1771 13.3606 14.8563C12.8606 15.4334 12.5898 16.0167 12.5189 16.5792C12.4773 16.9125 12.5064 17.25 12.6043 17.5688L12.6418 17.5896C13.2043 19.2417 13.9377 20.8313 14.8335 22.3271C15.9886 24.4281 17.4101 26.3713 19.0627 28.1084L19.1127 28.1792L19.1918 28.2375L19.2398 28.2938L19.2981 28.3438C21.0413 30.0013 22.989 31.4296 25.0939 32.5938C27.5002 33.9042 28.9606 34.5229 29.8377 34.7813V34.7938C30.0939 34.8729 30.3273 34.9084 30.5627 34.9084C31.3096 34.8532 32.0166 34.5495 32.571 34.0459C33.2481 33.4459 33.821 32.7396 34.2668 31.9542V31.9396C34.6856 31.1479 34.5439 30.4021 33.9398 29.8959C32.7262 28.8355 31.414 27.8937 30.021 27.0834C29.0877 26.5771 28.1398 26.8834 27.7564 27.3959L26.9377 28.4292C26.5168 28.9417 25.7543 28.8709 25.7543 28.8709L25.7335 28.8834C20.0439 27.4313 18.5252 21.6709 18.5252 21.6709C18.5252 21.6709 18.4543 20.8875 18.9814 20.4875L20.0064 19.6625C20.4981 19.2625 20.8398 18.3167 20.3127 17.3834C19.5077 15.9891 18.5678 14.6773 17.5064 13.4667C17.2749 13.1818 16.9503 12.9877 16.5898 12.9188L16.5939 12.9209ZM26.2085 10.4167C25.9322 10.4167 25.6673 10.5264 25.4719 10.7218C25.2766 10.9171 25.1668 11.1821 25.1668 11.4584C25.1668 11.7346 25.2766 11.9996 25.4719 12.1949C25.6673 12.3903 25.9322 12.5 26.2085 12.5C28.8418 12.5 31.0293 13.3604 32.7606 15.0104C33.6502 15.9125 34.3439 16.9813 34.7981 18.1521C35.2543 19.325 35.4627 20.5771 35.4085 21.8313C35.3969 22.1075 35.4955 22.3771 35.6827 22.5807C35.8698 22.7842 36.1302 22.9051 36.4064 22.9167C36.6827 22.9283 36.9523 22.8297 37.1558 22.6425C37.3594 22.4554 37.4802 22.195 37.4918 21.9188C37.5565 20.376 37.3004 18.8367 36.7398 17.3979C36.1767 15.9524 35.323 14.6378 34.2314 13.5354L34.2106 13.5146C32.0627 11.4625 29.346 10.4167 26.2085 10.4167Z" />
<path d="M26.1354 13.8417C25.8591 13.8417 25.5942 13.9514 25.3988 14.1468C25.2035 14.3421 25.0938 14.6071 25.0938 14.8833C25.0938 15.1596 25.2035 15.4246 25.3988 15.6199C25.5942 15.8153 25.8591 15.925 26.1354 15.925H26.1708C28.0708 16.0604 29.4542 16.6938 30.4229 17.7333C31.4167 18.8042 31.9312 20.1354 31.8917 21.7813C31.8853 22.0575 31.989 22.325 32.1798 22.5249C32.3707 22.7247 32.6331 22.8405 32.9094 22.8469C33.1856 22.8532 33.4531 22.7496 33.653 22.5587C33.8528 22.3679 33.9686 22.1054 33.975 21.8292C34.025 19.6688 33.3292 17.8042 31.95 16.3167V16.3125C30.5396 14.8 28.6042 14 26.275 13.8438L26.2396 13.8396L26.1354 13.8417Z" />
<path d="M26.0956 17.3312C25.9562 17.3189 25.8158 17.3349 25.6827 17.378C25.5495 17.4212 25.4265 17.4908 25.3208 17.5826C25.2152 17.6744 25.1291 17.7865 25.0678 17.9123C25.0065 18.0381 24.9711 18.1749 24.9638 18.3147C24.9565 18.4544 24.9775 18.5942 25.0254 18.7257C25.0734 18.8572 25.1473 18.9776 25.2428 19.0799C25.3384 19.1822 25.4535 19.2642 25.5814 19.3209C25.7093 19.3777 25.8474 19.4082 25.9873 19.4104C26.8581 19.4562 27.4144 19.7187 27.7644 20.0708C28.1165 20.425 28.379 20.9937 28.4269 21.8833C28.4295 22.0231 28.4602 22.161 28.5172 22.2886C28.5742 22.4163 28.6563 22.5312 28.7586 22.6264C28.861 22.7217 28.9815 22.7954 29.1129 22.8431C29.2443 22.8908 29.384 22.9116 29.5236 22.9042C29.6632 22.8967 29.7999 22.8613 29.9255 22.7999C30.0512 22.7386 30.1632 22.6525 30.2548 22.547C30.3465 22.4414 30.416 22.3185 30.4592 22.1855C30.5023 22.0525 30.5183 21.9122 30.506 21.7729C30.4394 20.5229 30.0477 19.4187 29.2456 18.6062C28.4394 17.7937 27.3415 17.3979 26.0956 17.3312Z" />
<path fill-rule="evenodd" clip-rule="evenodd" d="M14.723 4.96669C21.3523 3.48482 28.227 3.48482 34.8563 4.96669L35.5626 5.12294C37.5005 5.55617 39.2804 6.5182 40.7044 7.90215C42.1284 9.2861 43.1409 11.0378 43.6293 12.9625C45.312 19.5935 45.312 26.5398 43.6293 33.1709C43.1409 35.0956 42.1284 36.8473 40.7044 38.2312C39.2804 39.6152 37.5005 40.5772 35.5626 41.0104L34.8543 41.1667C30.7022 42.0952 26.4417 42.445 22.1938 42.2063L16.6668 47.1521C16.4584 47.3387 16.2038 47.4659 15.9294 47.5205C15.6551 47.5751 15.3712 47.555 15.1073 47.4624C14.8434 47.3698 14.6091 47.2081 14.429 46.9941C14.2489 46.7801 14.1296 46.5217 14.0834 46.2459L13.1688 40.7834C11.4151 40.2377 9.83053 39.2513 8.56669 37.9185C7.30286 36.5858 6.40196 34.9511 5.95009 33.1709C4.26729 26.5398 4.26729 19.5935 5.95009 12.9625C6.43847 11.0378 7.45092 9.2861 8.87496 7.90215C10.299 6.5182 12.0788 5.55617 14.0168 5.12294L14.723 4.96669ZM34.1751 8.0146C27.9944 6.63295 21.5849 6.63295 15.4043 8.0146L14.6959 8.17294C13.3224 8.48055 12.0611 9.16284 11.0519 10.144C10.0428 11.1252 9.32532 12.3669 8.97926 13.7313C7.4245 19.8578 7.4245 26.2756 8.97926 32.4021C9.32549 33.7667 10.0432 35.0086 11.0528 35.9898C12.0623 36.971 13.3241 37.6532 14.698 37.9604L14.8855 38.0021C15.1888 38.0699 15.465 38.2267 15.6788 38.4523C15.8925 38.678 16.0342 38.9622 16.0855 39.2688L16.698 42.9313L20.598 39.4417C20.7537 39.3019 20.936 39.1949 21.1339 39.1269C21.3318 39.0589 21.5413 39.0313 21.7501 39.0459C25.9148 39.3413 30.1003 39.029 34.1751 38.1188L34.8813 37.9604C36.2552 37.6532 37.517 36.971 38.5266 35.9898C39.5361 35.0086 40.2539 33.7667 40.6001 32.4021C42.1543 26.2771 42.1543 19.8584 40.6001 13.7313C40.2539 12.3667 39.5361 11.1248 38.5266 10.1436C37.517 9.16235 36.2552 8.48021 34.8813 8.17294L34.1751 8.0146Z" />
</svg>
