<svg width="50" height="50" viewBox="0 0 50 50" xmlns="http://www.w3.org/2000/svg">
<path fill-rule="evenodd" clip-rule="evenodd" d="M48.8542 12.3917C49.2 11.2542 48.8542 10.4167 47.1979 10.4167H41.7292C40.3375 10.4167 39.6958 11.1396 39.3479 11.9375C39.3479 11.9375 36.5667 18.5959 32.6271 22.9209C31.3521 24.175 30.7729 24.5729 30.0771 24.5729C29.7292 24.5729 29.2062 24.175 29.2062 23.0354V12.3917C29.2062 11.025 28.8229 10.4167 27.6646 10.4167H19.0646C18.1958 10.4167 17.6729 11.05 17.6729 11.6521C17.6729 12.9459 19.6437 13.2459 19.8458 16.8875V24.8C19.8458 26.5354 19.5271 26.85 18.8312 26.85C16.9771 26.85 12.4667 20.1604 9.78958 12.5063C9.27083 11.0167 8.74583 10.4167 7.34792 10.4167H1.875C0.3125 10.4167 0 11.1396 0 11.9375C0 13.3584 1.85417 20.4167 8.63542 29.7521C13.1562 36.1271 19.5208 39.5834 25.3187 39.5834C28.7958 39.5834 29.225 38.8167 29.225 37.4938V32.675C29.225 31.1396 29.5542 30.8334 30.6562 30.8334C31.4688 30.8334 32.8583 31.2334 36.1042 34.3063C39.8125 37.95 40.4229 39.5834 42.5104 39.5834H47.9792C49.5417 39.5834 50.325 38.8167 49.875 37.3C49.3792 35.7917 47.6083 33.6021 45.2604 31.0042C43.9854 29.525 42.0729 27.9313 41.4917 27.1334C40.6812 26.1104 40.9125 25.6542 41.4917 24.7438C41.4917 24.7438 48.1583 15.5229 48.8521 12.3917" />
</svg>
