<svg width="81" height="93" viewBox="0 0 81 93" fill="none" xmlns="http://www.w3.org/2000/svg">
<path id="&#208;&#152;&#208;&#186;&#208;&#190;&#208;&#189; &#208;&#186;&#209;&#128;&#208;&#190;&#208;&#178;&#209;&#140;" d="M30.0127 2.29802C30.1424 2.14902 30.2633 2.01066 30.3749 1.88332C30.3784 1.8873 30.3819 1.8913 30.3854 1.8953C30.9899 2.58504 31.8625 3.59371 32.9309 4.86519C35.0684 7.40876 37.9873 11.0008 41.1114 15.1929C47.0578 23.1721 53.6718 33.2258 57.1108 42.3272C54.5183 42.6632 52.0348 43.2688 49.6618 44.1243C46.0142 35.2404 38.6558 24.0496 31.3562 14.8L30.3782 13.5607L29.3962 14.7969C24.3042 21.2076 19.2012 28.5045 15.3638 35.3221C13.4452 38.7307 11.8316 42.0396 10.6948 45.0723C9.56378 48.0895 8.875 50.9104 8.875 53.32C8.875 64.5907 17.8628 73.7538 29.149 74.3763C29.2509 76.9524 29.6756 79.4253 30.3808 81.83H30.375C14.2843 81.83 1.25 69.0233 1.25 53.32C1.25 48.6402 3.05319 43.0304 5.87286 37.16C8.68033 31.3149 12.4361 25.3311 16.2116 19.9367C19.9842 14.5464 23.7595 9.76853 26.5928 6.33713C28.0089 4.62211 29.1883 3.24511 30.0127 2.29802ZM64.5625 68.2V69.45H65.8125H79.75V76.87H65.8125H64.5625V78.12V91.75H56.9375V78.12V76.87H55.6875H41.75V69.45H55.6875H56.9375V68.2V54.57H64.5625V68.2Z" fill="#D93C3C" stroke="#FDFDFD" stroke-width="2.5"/>
</svg>
