<svg width="84" height="76" viewBox="0 0 84 76" fill="none" xmlns="http://www.w3.org/2000/svg">
<g id="&#208;&#152;&#208;&#186;&#208;&#190;&#208;&#189; &#208;&#188;&#208;&#190;&#208;&#189;&#208;&#181;&#209;&#130;&#209;&#139;">
<path id="Vector" d="M37.5556 48C37.5556 53.52 47.5067 58 59.7778 58C72.0489 58 82 53.52 82 48M2 28C2 33.52 11.9511 38 24.2222 38C29.2267 38 33.8444 37.256 37.5556 36M2 42C2 47.52 11.9511 52 24.2222 52C29.2267 52 33.84 51.256 37.5556 50M59.7778 42C47.5067 42 37.5556 37.52 37.5556 32C37.5556 26.48 47.5067 22 59.7778 22C72.0489 22 82 26.48 82 32C82 37.52 72.0489 42 59.7778 42Z" stroke="#D93C3C" stroke-width="4" stroke-linecap="round" stroke-linejoin="round"/>
<path id="Vector_2" d="M2 12V56C2 61.52 11.9511 66 24.2222 66C29.2267 66 33.84 65.256 37.5556 64M37.5556 64V32M37.5556 64C37.5556 69.52 47.5067 74 59.7778 74C72.0489 74 82 69.52 82 64V32M46.4444 24V12" stroke="#D93C3C" stroke-width="4" stroke-linecap="round" stroke-linejoin="round"/>
<path id="Vector_3" d="M24.2222 22C11.9511 22 2 17.52 2 12C2 6.48 11.9511 2 24.2222 2C36.4933 2 46.4444 6.48 46.4444 12C46.4444 17.52 36.4933 22 24.2222 22Z" stroke="#D93C3C" stroke-width="4" stroke-linecap="round" stroke-linejoin="round"/>
</g>
</svg>
