<svg width="82" height="94" viewBox="0 0 82 94" fill="none" xmlns="http://www.w3.org/2000/svg">
<g id="&#208;&#152;&#208;&#186;&#208;&#190;&#208;&#189; &#208;&#186;&#208;&#176;&#209;&#136;&#208;&#181;&#208;&#187;&#209;&#140;">
<g id="Group 34">
<path id="Vector" d="M81.5545 34.6135C81.5545 15.9091 67.2966 0.477966 49.4743 0.0103554C31.2064 -0.457255 16.0574 14.9739 15.6119 33.6783L5.80957 54.7207V55.656C5.80957 57.0588 6.70069 57.994 8.03736 57.994H16.9485V70.1519C16.9485 75.2956 20.9586 79.5041 25.8597 79.5041H30.3153V91.1943C30.3153 92.5972 31.2064 93.5324 32.5431 93.5324C33.8797 93.5324 34.7709 92.5972 34.7709 91.1943V79.5041H36.9987C38.3353 79.5041 39.2264 78.5689 39.2264 77.166C39.2264 75.7632 38.3353 74.828 36.9987 74.828H25.8597C23.1863 74.828 21.4041 72.9575 21.4041 70.1519V56.1236C21.4041 54.7207 20.513 53.7855 19.1763 53.7855H11.6018L20.0674 35.5487C20.0674 35.0811 20.513 35.0811 20.0674 34.6135C20.0674 18.2472 32.5431 4.68646 48.1376 4.68646C63.7322 4.68646 76.6533 17.7795 77.0989 34.1459L67.7422 71.0871V72.4899L72.6433 92.1296C73.0889 93.0648 73.98 94 74.8711 94H75.3167C76.6533 93.5324 77.0989 92.5972 77.0989 91.1943L72.6433 72.0223L82 35.5487C81.5545 35.0811 81.5545 34.6135 81.5545 34.6135Z" fill="#D93C3C"/>
</g>
<line id="Line 20" y1="-1" x2="11.0476" y2="-1" transform="matrix(0.689655 -0.724138 0.689655 0.724138 2 69)" stroke="#D93C3C" stroke-width="2"/>
<line id="Line 21" y1="-1" x2="11.1815" y2="-1" transform="matrix(0.481823 -0.876269 0.855138 0.5184 5.80957 71.7979)" stroke="#D93C3C" stroke-width="2"/>
<line id="Line 22" y1="-1" x2="11.2784" y2="-1" transform="matrix(0.247265 -0.968948 0.962627 0.270832 10.5713 73.9282)" stroke="#D93C3C" stroke-width="2"/>
</g>
</svg>
