<svg width="84" height="62" viewBox="0 0 84 62" fill="none" xmlns="http://www.w3.org/2000/svg">
<g id="&#208;&#152;&#208;&#186;&#208;&#190;&#208;&#189;&#208;&#186;&#208;&#176; &#209;&#128;&#209;&#131;&#208;&#186;&#208;&#190;&#208;&#191;&#208;&#190;&#208;&#182;">
<path id="Vector" d="M2 4.91626L15.6701 12.3273L27.8822 10.2045C29.9154 9.84982 32.0014 9.9561 33.9887 10.5156C35.9761 11.0751 37.8149 12.0737 39.3715 13.4389M68.8799 43.8367L49.5524 57.679C47.4774 59.1649 45.0007 59.9747 42.4554 59.9994C39.9101 60.0241 37.4184 59.2626 35.3154 57.8171L2 34.9246" stroke="#D93C3C" stroke-width="4" stroke-linecap="round" stroke-linejoin="round"/>
<path id="Vector_2" d="M81.9999 34.7036L68.3713 44.1229L47.2239 26.8543L39.4441 32.5749C37.9214 33.693 36.0292 34.1699 34.1658 33.9051C32.3024 33.6404 30.6132 32.6548 29.454 31.1557C28.2995 29.658 27.7638 27.7661 27.9595 25.8773C28.1551 23.9886 29.0669 22.25 30.5033 21.0269L38.6059 14.1383C40.5265 12.5032 42.754 11.2776 45.1547 10.5352C47.5554 9.79279 50.0797 9.54883 52.5759 9.81798L65.1986 11.1869L81.9999 2" stroke="#D93C3C" stroke-width="4" stroke-linecap="round" stroke-linejoin="round"/>
<path id="Vector_3" d="M47.1201 26.8977C52.229 31.6872 59.4686 29.24 62.1601 25.3296" stroke="#D93C3C" stroke-width="4" stroke-linecap="round" stroke-linejoin="round"/>
</g>
</svg>
