<svg width="81" height="81" viewBox="0 0 81 81" fill="none" xmlns="http://www.w3.org/2000/svg">
<g id="&#208;&#152;&#208;&#186;&#208;&#190;&#208;&#189; &#209;&#129;&#208;&#181;&#208;&#188;&#209;&#143;">
<mask id="path-1-inside-1_1_406" fill="white">
<path d="M36.7079 73.3116C35.7088 72.8498 34.8143 72.1889 34.0793 71.3692C32.774 70.1065 31.8372 68.5117 31.3699 66.7562C30.47 63.513 28.6258 60.6112 26.0722 58.4203C26.5656 56.0461 26.4538 53.5859 25.747 51.2663C25.0403 48.9468 23.7614 46.8426 22.0282 45.1477C19.7397 42.5203 16.5102 40.899 13.0372 40.634C9.56417 40.369 6.12635 41.4816 3.46617 43.7314C1.21534 46.3999 0.102369 49.8464 0.367126 53.3282C0.631883 56.8101 2.25317 60.0485 4.88158 62.3455C7.28384 64.7953 10.4239 66.3877 13.8188 66.8776H15.2747C17.4643 66.8842 19.6105 66.2666 21.462 65.0971C22.4675 66.1488 23.1788 67.4466 23.5245 68.8604C24.396 71.941 26.0709 74.7342 28.3773 76.9535C29.7741 78.4155 31.4167 79.6208 33.2301 80.5144C33.7847 80.7832 34.3933 80.9216 35.0095 80.9191C35.9263 80.9229 36.8171 80.6148 37.536 80.0455C38.2549 79.4761 38.7591 78.6792 38.9659 77.7855C39.1727 76.8918 39.07 75.9542 38.6744 75.1266C38.2788 74.299 37.614 73.6305 36.7888 73.2306L36.7079 73.3116ZM17.5393 58.0561C17.1519 58.3829 16.6979 58.621 16.2089 58.7538C15.7199 58.8866 15.2079 58.9109 14.7085 58.825C13.0839 58.6258 11.5737 57.8845 10.4219 56.7208C8.11679 54.4547 7.46975 51.0961 8.96603 49.5584C9.59313 49.0146 10.4012 48.7258 11.2307 48.7491C13.1168 48.7868 14.9146 49.5557 16.2453 50.8938C17.4529 52.0286 18.2375 53.5417 18.4695 55.1831C18.5401 55.7011 18.4931 56.2284 18.3321 56.7258C18.1711 57.2232 17.9001 57.6779 17.5393 58.0561ZM78.1995 33.2913C76.7906 32.82 75.5244 31.9985 74.5194 30.9039C73.2141 29.6412 72.2774 28.0463 71.81 26.2908C70.9101 23.0476 69.0659 20.1458 66.5123 17.9549C66.9806 15.5638 66.8369 13.093 66.0945 10.7724C65.352 8.45178 64.0351 6.35678 62.2661 4.6823C59.9776 2.05488 56.7481 0.433604 53.2751 0.168612C49.8021 -0.0963806 46.3643 1.01618 43.7041 3.26601C41.4532 5.93449 40.3403 9.38103 40.605 12.8629C40.8698 16.3447 42.4911 19.5831 45.1195 21.8801C47.5747 24.3697 50.7921 25.9652 54.259 26.4122H55.7148C57.9044 26.4189 60.0506 25.8013 61.9021 24.6317C62.9076 25.6834 63.6189 26.9813 63.9646 28.395C64.8502 31.4695 66.523 34.2593 68.8174 36.4881C70.7367 38.4618 73.0911 39.9584 75.6922 40.8583C76.113 40.9817 76.548 41.0497 76.9863 41.0607C77.8341 41.0629 78.6611 40.7984 79.3505 40.3046C80.0399 39.8108 80.5568 39.1128 80.8281 38.309C81.1334 37.2948 81.0292 36.2012 80.5377 35.2631C80.0463 34.325 79.2068 33.617 78.1995 33.2913ZM57.9794 17.5908C57.592 17.9175 57.138 18.1556 56.649 18.2884C56.16 18.4212 55.648 18.4455 55.1486 18.3596C53.524 18.1604 52.0138 17.4191 50.862 16.2554C48.5569 13.9893 47.9099 10.6307 49.4061 9.09303C50.0332 8.54923 50.8413 8.26046 51.6708 8.28372C53.5569 8.32141 55.3547 9.09031 56.6854 10.4284C57.893 11.5632 58.6776 13.0763 58.9096 14.7177C58.9802 15.2358 58.9332 15.7631 58.7722 16.2605C58.6112 16.7578 58.3402 17.2125 57.9794 17.5908ZM79.7767 74.7279C78.9832 71.5714 77.3495 68.6892 75.0495 66.3877C72.7494 64.0862 69.869 62.4515 66.7145 61.6575C64.5868 61.0536 62.6507 59.9107 61.0933 58.3394C59.5196 56.8132 58.3997 54.8801 57.8581 52.7552C56.9797 49.5922 55.2895 46.7142 52.9555 44.4072C50.6214 42.1001 47.7248 40.4442 44.5533 39.6039C42.4289 39.064 40.4965 37.9431 38.9726 36.3667C37.3893 34.8252 36.2567 32.8803 35.6969 30.742C34.9396 27.9576 33.5564 25.3832 31.6529 23.2154C32.2983 21.2608 32.5592 19.1996 32.4213 17.1456C31.8678 12.8372 29.8722 8.84345 26.7597 5.81533C23.7185 2.66275 19.6976 0.636812 15.3556 0.069249C13.2987 -0.137112 11.2218 0.11914 9.27668 0.819265C7.33154 1.51939 5.56739 2.64569 4.11322 4.11579C2.64403 5.57086 1.51844 7.33612 0.818753 9.28247C0.119065 11.2288 -0.137026 13.307 0.0692058 15.3652C0.622696 19.6736 2.61834 23.6673 5.73082 26.6955C8.77203 29.848 12.7929 31.874 17.1349 32.4415H18.8739C21.758 32.5039 24.5883 31.6543 26.9619 30.0136C27.5187 30.9044 27.9411 31.8725 28.2155 32.8867C29.1678 36.367 31.0119 39.5381 33.5654 42.0861C36.1189 44.6341 39.2932 46.4706 42.774 47.4137C44.5493 47.9012 46.1664 48.8449 47.4646 50.151C48.7628 51.4571 49.697 53.0803 50.1745 54.8594C51.1169 58.349 52.9571 61.5305 55.5116 64.0865C58.066 66.6426 61.2455 68.4839 64.7329 69.4269C66.5032 69.9249 68.1098 70.884 69.3886 72.2063C70.6674 73.5286 71.5728 75.1667 72.0122 76.9535C72.1734 77.5916 72.3899 78.2144 72.6592 78.8149C72.9976 79.4686 73.5079 80.0175 74.1349 80.4025C74.762 80.7876 75.4822 80.9942 76.2179 81C76.8312 80.9779 77.4348 80.8407 77.9973 80.5953C78.9678 80.1391 79.7175 79.3158 80.0815 78.3066C80.4455 77.2973 80.3941 76.1847 79.9384 75.2134C79.9384 75.2134 79.8171 74.8088 79.7767 74.7279ZM22.8774 22.8917C20.2893 25.441 15.1129 24.5508 11.5138 20.9898C9.69942 19.2541 8.51783 16.9606 8.15723 14.4749C8.02204 13.6112 8.07878 12.7283 8.32342 11.889C8.56806 11.0497 8.99459 10.2747 9.57263 9.61908C10.6746 8.61663 12.129 8.0927 13.6166 8.16232C16.4225 8.29155 19.0716 9.49382 21.0172 11.5209C22.8166 13.2626 23.9837 15.5554 24.3333 18.0359C24.4631 18.9026 24.3999 19.7873 24.1482 20.6268C23.8965 21.4662 23.4626 22.2396 22.8774 22.8917Z"/>
</mask>
<path d="M36.7079 73.3116C35.7088 72.8498 34.8143 72.1889 34.0793 71.3692C32.774 70.1065 31.8372 68.5117 31.3699 66.7562C30.47 63.513 28.6258 60.6112 26.0722 58.4203C26.5656 56.0461 26.4538 53.5859 25.747 51.2663C25.0403 48.9468 23.7614 46.8426 22.0282 45.1477C19.7397 42.5203 16.5102 40.899 13.0372 40.634C9.56417 40.369 6.12635 41.4816 3.46617 43.7314C1.21534 46.3999 0.102369 49.8464 0.367126 53.3282C0.631883 56.8101 2.25317 60.0485 4.88158 62.3455C7.28384 64.7953 10.4239 66.3877 13.8188 66.8776H15.2747C17.4643 66.8842 19.6105 66.2666 21.462 65.0971C22.4675 66.1488 23.1788 67.4466 23.5245 68.8604C24.396 71.941 26.0709 74.7342 28.3773 76.9535C29.7741 78.4155 31.4167 79.6208 33.2301 80.5144C33.7847 80.7832 34.3933 80.9216 35.0095 80.9191C35.9263 80.9229 36.8171 80.6148 37.536 80.0455C38.2549 79.4761 38.7591 78.6792 38.9659 77.7855C39.1727 76.8918 39.07 75.9542 38.6744 75.1266C38.2788 74.299 37.614 73.6305 36.7888 73.2306L36.7079 73.3116ZM17.5393 58.0561C17.1519 58.3829 16.6979 58.621 16.2089 58.7538C15.7199 58.8866 15.2079 58.9109 14.7085 58.825C13.0839 58.6258 11.5737 57.8845 10.4219 56.7208C8.11679 54.4547 7.46975 51.0961 8.96603 49.5584C9.59313 49.0146 10.4012 48.7258 11.2307 48.7491C13.1168 48.7868 14.9146 49.5557 16.2453 50.8938C17.4529 52.0286 18.2375 53.5417 18.4695 55.1831C18.5401 55.7011 18.4931 56.2284 18.3321 56.7258C18.1711 57.2232 17.9001 57.6779 17.5393 58.0561ZM78.1995 33.2913C76.7906 32.82 75.5244 31.9985 74.5194 30.9039C73.2141 29.6412 72.2774 28.0463 71.81 26.2908C70.9101 23.0476 69.0659 20.1458 66.5123 17.9549C66.9806 15.5638 66.8369 13.093 66.0945 10.7724C65.352 8.45178 64.0351 6.35678 62.2661 4.6823C59.9776 2.05488 56.7481 0.433604 53.2751 0.168612C49.8021 -0.0963806 46.3643 1.01618 43.7041 3.26601C41.4532 5.93449 40.3403 9.38103 40.605 12.8629C40.8698 16.3447 42.4911 19.5831 45.1195 21.8801C47.5747 24.3697 50.7921 25.9652 54.259 26.4122H55.7148C57.9044 26.4189 60.0506 25.8013 61.9021 24.6317C62.9076 25.6834 63.6189 26.9813 63.9646 28.395C64.8502 31.4695 66.523 34.2593 68.8174 36.4881C70.7367 38.4618 73.0911 39.9584 75.6922 40.8583C76.113 40.9817 76.548 41.0497 76.9863 41.0607C77.8341 41.0629 78.6611 40.7984 79.3505 40.3046C80.0399 39.8108 80.5568 39.1128 80.8281 38.309C81.1334 37.2948 81.0292 36.2012 80.5377 35.2631C80.0463 34.325 79.2068 33.617 78.1995 33.2913ZM57.9794 17.5908C57.592 17.9175 57.138 18.1556 56.649 18.2884C56.16 18.4212 55.648 18.4455 55.1486 18.3596C53.524 18.1604 52.0138 17.4191 50.862 16.2554C48.5569 13.9893 47.9099 10.6307 49.4061 9.09303C50.0332 8.54923 50.8413 8.26046 51.6708 8.28372C53.5569 8.32141 55.3547 9.09031 56.6854 10.4284C57.893 11.5632 58.6776 13.0763 58.9096 14.7177C58.9802 15.2358 58.9332 15.7631 58.7722 16.2605C58.6112 16.7578 58.3402 17.2125 57.9794 17.5908ZM79.7767 74.7279C78.9832 71.5714 77.3495 68.6892 75.0495 66.3877C72.7494 64.0862 69.869 62.4515 66.7145 61.6575C64.5868 61.0536 62.6507 59.9107 61.0933 58.3394C59.5196 56.8132 58.3997 54.8801 57.8581 52.7552C56.9797 49.5922 55.2895 46.7142 52.9555 44.4072C50.6214 42.1001 47.7248 40.4442 44.5533 39.6039C42.4289 39.064 40.4965 37.9431 38.9726 36.3667C37.3893 34.8252 36.2567 32.8803 35.6969 30.742C34.9396 27.9576 33.5564 25.3832 31.6529 23.2154C32.2983 21.2608 32.5592 19.1996 32.4213 17.1456C31.8678 12.8372 29.8722 8.84345 26.7597 5.81533C23.7185 2.66275 19.6976 0.636812 15.3556 0.069249C13.2987 -0.137112 11.2218 0.11914 9.27668 0.819265C7.33154 1.51939 5.56739 2.64569 4.11322 4.11579C2.64403 5.57086 1.51844 7.33612 0.818753 9.28247C0.119065 11.2288 -0.137026 13.307 0.0692058 15.3652C0.622696 19.6736 2.61834 23.6673 5.73082 26.6955C8.77203 29.848 12.7929 31.874 17.1349 32.4415H18.8739C21.758 32.5039 24.5883 31.6543 26.9619 30.0136C27.5187 30.9044 27.9411 31.8725 28.2155 32.8867C29.1678 36.367 31.0119 39.5381 33.5654 42.0861C36.1189 44.6341 39.2932 46.4706 42.774 47.4137C44.5493 47.9012 46.1664 48.8449 47.4646 50.151C48.7628 51.4571 49.697 53.0803 50.1745 54.8594C51.1169 58.349 52.9571 61.5305 55.5116 64.0865C58.066 66.6426 61.2455 68.4839 64.7329 69.4269C66.5032 69.9249 68.1098 70.884 69.3886 72.2063C70.6674 73.5286 71.5728 75.1667 72.0122 76.9535C72.1734 77.5916 72.3899 78.2144 72.6592 78.8149C72.9976 79.4686 73.5079 80.0175 74.1349 80.4025C74.762 80.7876 75.4822 80.9942 76.2179 81C76.8312 80.9779 77.4348 80.8407 77.9973 80.5953C78.9678 80.1391 79.7175 79.3158 80.0815 78.3066C80.4455 77.2973 80.3941 76.1847 79.9384 75.2134C79.9384 75.2134 79.8171 74.8088 79.7767 74.7279ZM22.8774 22.8917C20.2893 25.441 15.1129 24.5508 11.5138 20.9898C9.69942 19.2541 8.51783 16.9606 8.15723 14.4749C8.02204 13.6112 8.07878 12.7283 8.32342 11.889C8.56806 11.0497 8.99459 10.2747 9.57263 9.61908C10.6746 8.61663 12.129 8.0927 13.6166 8.16232C16.4225 8.29155 19.0716 9.49382 21.0172 11.5209C22.8166 13.2626 23.9837 15.5554 24.3333 18.0359C24.4631 18.9026 24.3999 19.7873 24.1482 20.6268C23.8965 21.4662 23.4626 22.2396 22.8774 22.8917Z" fill="#D93C3C" stroke="#FDFDFD" stroke-width="4" mask="url(#path-1-inside-1_1_406)"/>
</g>
</svg>
