<svg width="80" height="72" viewBox="0 0 80 72" fill="none" xmlns="http://www.w3.org/2000/svg">
<g id="&#208;&#152;&#208;&#186;&#208;&#190;&#208;&#189; &#208;&#191;&#208;&#190;&#208;&#187;">
<path id="Vector" fill-rule="evenodd" clip-rule="evenodd" d="M25.6581 16.757C22.4674 15.4963 18.9546 15.3364 15.6649 16.3023C12.3751 17.2681 9.49249 19.3056 7.46425 22.0985C5.43601 24.8915 4.37561 28.2837 4.44761 31.7488C4.5196 35.2138 5.71997 38.558 7.86243 41.2622C10.0049 43.9664 12.9696 45.8795 16.2965 46.7046C19.6235 47.5297 23.1265 47.2206 26.2621 45.8253C29.3976 44.43 31.9903 42.0266 33.6378 38.9879C35.2853 35.9493 35.8955 32.4454 35.3736 29.0201C35.3293 28.7282 35.3422 28.4303 35.4116 28.1435C35.481 27.8567 35.6056 27.5865 35.7782 27.3483C35.9508 27.1102 36.1681 26.9088 36.4176 26.7557C36.6672 26.6025 36.9441 26.5006 37.2325 26.4557C37.521 26.4108 37.8154 26.4239 38.0989 26.4941C38.3824 26.5643 38.6494 26.6904 38.8847 26.865C39.1201 27.0397 39.3191 27.2595 39.4705 27.512C39.6219 27.7645 39.7226 28.0446 39.767 28.3365C40.4372 32.7405 39.6521 37.2451 37.5334 41.1515C35.4148 45.0578 32.0811 48.1474 28.0497 49.9408C24.0183 51.7342 19.5145 52.1312 15.2373 51.0701C10.9601 50.009 7.14866 47.5492 4.39435 44.0724C1.64004 40.5956 0.0969118 36.2961 0.00441455 31.8412C-0.0880827 27.3864 1.27522 23.0252 3.88279 19.4344C6.49035 15.8436 10.1964 13.2239 14.4257 11.982C18.6551 10.7401 23.1713 10.9454 27.2737 12.5659C27.5492 12.6705 27.8015 12.8294 28.0159 13.0334C28.2302 13.2374 28.4024 13.4825 28.5224 13.7544C28.6424 14.0263 28.7078 14.3196 28.7149 14.6173C28.7219 14.915 28.6705 15.2111 28.5635 15.4885C28.4565 15.7659 28.2961 16.0191 28.0916 16.2333C27.8872 16.4474 27.6427 16.6184 27.3724 16.7362C27.1021 16.854 26.8114 16.9163 26.5171 16.9195C26.2228 16.9227 25.9308 16.8689 25.6581 16.757Z" fill="#D93C3C"/>
<path id="Vector_2" fill-rule="evenodd" clip-rule="evenodd" d="M17.6797 69.7415V51.6744C17.6797 51.0754 17.9242 50.501 18.3593 50.0775C18.7945 49.654 19.3847 49.416 20.0001 49.416C20.6155 49.416 21.2058 49.654 21.6409 50.0775C22.0761 50.501 22.3206 51.0754 22.3206 51.6744V69.7415C22.3206 70.3405 22.0761 70.9149 21.6409 71.3384C21.2058 71.762 20.6155 71.9999 20.0001 71.9999C19.3847 71.9999 18.7945 71.762 18.3593 71.3384C17.9242 70.9149 17.6797 70.3405 17.6797 69.7415Z" fill="#D93C3C"/>
<path id="Vector_3" fill-rule="evenodd" clip-rule="evenodd" d="M11.0498 58.5636C11.0498 57.9652 11.2845 57.3913 11.7023 56.9682C12.12 56.545 12.6866 56.3073 13.2774 56.3073H26.643C27.2338 56.3073 27.8004 56.545 28.2182 56.9682C28.6359 57.3913 28.8706 57.9652 28.8706 58.5636C28.8706 59.1621 28.6359 59.736 28.2182 60.1591C27.8004 60.5823 27.2338 60.82 26.643 60.82H13.2774C12.6866 60.82 12.12 60.5823 11.7023 60.1591C11.2845 59.736 11.0498 59.1621 11.0498 58.5636ZM50.9283 16.2863C48.4597 15.5804 45.8572 15.5023 43.3516 16.0589C40.846 16.6154 38.5147 17.7895 36.5642 19.477C34.6137 21.1646 33.1044 23.3134 32.17 25.7332C31.2356 28.1529 30.9049 30.7688 31.2074 33.3489C31.2435 33.6439 31.2218 33.9433 31.1433 34.2298C31.0649 34.5162 30.9313 34.7842 30.7503 35.0182C30.5693 35.2523 30.3444 35.4478 30.0886 35.5935C29.8328 35.7392 29.551 35.8323 29.2596 35.8674C28.9681 35.9024 28.6727 35.8788 28.3903 35.7979C28.1079 35.717 27.844 35.5803 27.6139 35.3958C27.3838 35.2112 27.192 34.9824 27.0494 34.7225C26.9069 34.4626 26.8165 34.1768 26.7834 33.8814C26.2629 29.441 27.204 24.9507 29.4605 21.1074C31.7171 17.264 35.1629 14.2826 39.2633 12.6257C43.3637 10.9688 47.8893 10.7291 52.138 11.9438C56.3866 13.1585 60.1207 15.7596 62.7606 19.3436C65.4006 22.9275 66.7989 27.2939 66.7385 31.7651C66.6781 36.2363 65.1624 40.5623 62.4267 44.0718C59.6909 47.5813 55.888 50.078 51.6082 51.1745C47.3283 52.271 42.8108 51.906 38.7567 50.1362C38.488 50.019 38.2448 49.8493 38.0408 49.6369C37.8368 49.4245 37.6762 49.1734 37.568 48.8981C37.3495 48.3421 37.358 47.721 37.5917 47.1713C37.8253 46.6217 38.265 46.1885 38.8139 45.9672C39.3629 45.7459 39.9761 45.7546 40.5187 45.9912C42.4786 46.8465 44.5909 47.2853 46.7249 47.2803C48.8589 47.2753 50.9692 46.8267 52.9251 45.9622C54.8811 45.0977 56.641 43.8358 58.096 42.2545C59.5509 40.6732 60.67 38.8063 61.3838 36.7692C62.0977 34.7322 62.3911 32.5684 62.246 30.4119C62.1009 28.2553 61.5203 26.1519 60.5402 24.2318C59.5601 22.3117 58.2013 20.6158 56.548 19.2491C54.8946 17.8824 52.982 16.874 50.9283 16.2863Z" fill="#D93C3C"/>
<path id="Vector_4" fill-rule="evenodd" clip-rule="evenodd" d="M59.6511 20.8051C59.2373 20.3819 59.0049 19.808 59.0049 19.2097C59.0049 18.6113 59.2373 18.0374 59.6511 17.6142L76.2046 0.688943C76.4082 0.473406 76.6518 0.301484 76.9211 0.183213C77.1903 0.0649418 77.48 0.00268902 77.773 8.52047e-05C78.0661 -0.00251861 78.3567 0.0545803 78.628 0.168049C78.8992 0.281518 79.1457 0.449084 79.3529 0.660972C79.5601 0.872859 79.724 1.12482 79.835 1.40216C79.946 1.6795 80.0018 1.97666 79.9993 2.27631C79.9967 2.57595 79.9358 2.87207 79.8202 3.1474C79.7045 3.42272 79.5363 3.67174 79.3255 3.87991L62.772 20.8051C62.3581 21.2282 61.7968 21.4659 61.2115 21.4659C60.6263 21.4659 60.065 21.2282 59.6511 20.8051Z" fill="#D93C3C"/>
<path id="Vector_5" fill-rule="evenodd" clip-rule="evenodd" d="M77.5977 15.8756C77.3081 15.8718 77.022 15.8094 76.7558 15.6921C76.4896 15.5747 76.2485 15.4048 76.0463 15.1918C75.8442 14.9789 75.6848 14.7271 75.5775 14.451C75.4701 14.1749 75.4168 13.8797 75.4206 13.5824L75.5309 4.58633L66.765 4.69952C66.1799 4.70733 65.6159 4.47631 65.1968 4.0573C64.7778 3.63828 64.5381 3.06559 64.5305 2.46521C64.5229 1.86483 64.748 1.28594 65.1562 0.855887C65.5645 0.425835 66.1226 0.179849 66.7076 0.172044L79.9999 0L79.8322 13.6413C79.8285 13.9386 79.7677 14.2322 79.6534 14.5054C79.5391 14.7786 79.3734 15.026 79.1659 15.2334C78.9584 15.4409 78.7132 15.6044 78.4441 15.7146C78.175 15.8248 77.8874 15.8795 77.5977 15.8756Z" fill="#D93C3C"/>
</g>
</svg>
