<svg width="83" height="83" viewBox="0 0 83 83" fill="none" xmlns="http://www.w3.org/2000/svg">
<path id="&#208;&#152;&#208;&#186;&#208;&#190;&#208;&#189; &#209;&#136;&#208;&#191;&#209;&#128;&#208;&#184;&#209;&#134;" d="M62.4875 1.74358C62.7226 1.50787 63.0019 1.32087 63.3094 1.19327C63.6169 1.06568 63.9465 1 64.2794 1C64.6124 1 64.942 1.06568 65.2495 1.19327C65.557 1.32087 65.8363 1.50787 66.0714 1.74358L81.2577 16.9296C81.733 17.4049 82 18.0495 82 18.7216C82 19.3937 81.733 20.0383 81.2577 20.5135C80.7825 20.9888 80.1379 21.2558 79.4658 21.2558C78.7936 21.2558 78.149 20.9888 77.6738 20.5135L75.6692 18.5039L66.5928 27.5801L76.1956 37.1777C76.6709 37.653 76.9379 38.2975 76.9379 38.9697C76.9379 39.6418 76.6709 40.2864 76.1956 40.7616C75.7204 41.2369 75.0758 41.5039 74.4036 41.5039C73.7315 41.5039 73.0869 41.2369 72.6117 40.7616L66.8105 34.9555L38.6652 63.1003C37.4896 64.2769 36.0937 65.2102 34.5571 65.8468C33.0206 66.4835 31.3736 66.8111 29.7104 66.8108H19.7684L5.32623 81.2578C4.85097 81.733 4.20637 82 3.53425 82C2.86212 82 2.21753 81.733 1.74226 81.2578C1.267 80.7825 1 80.1379 1 79.4658C1 78.7937 1.267 78.1491 1.74226 77.6738L16.1895 63.2319V53.285C16.1902 49.9302 17.523 46.713 19.895 44.3405L48.0402 16.1906L42.2391 10.3895C41.7638 9.91425 41.4968 9.26966 41.4968 8.59755C41.4968 7.92544 41.7638 7.28085 42.2391 6.8056C42.7143 6.33034 43.3589 6.06334 44.031 6.06334C44.7032 6.06334 45.3478 6.33034 45.823 6.8056L55.4208 16.4082L64.4971 7.33205L62.4875 5.32749C62.2518 5.09238 62.0648 4.81308 61.9372 4.50559C61.8096 4.19809 61.7439 3.86845 61.7439 3.53553C61.7439 3.20262 61.8096 2.87297 61.9372 2.56548C62.0648 2.25799 62.2518 1.97869 62.4875 1.74358ZM41.5 29.8935L37.4858 33.9076L40.7609 37.1777C41.2362 37.653 41.5032 38.2975 41.5032 38.9697C41.5032 39.6418 41.2362 40.2864 40.7609 40.7616C40.2857 41.2369 39.6411 41.5039 38.9689 41.5039C38.2968 41.5039 37.6522 41.2369 37.177 40.7616L33.9068 37.4865L29.8926 41.5007L33.1678 44.7707C33.643 45.246 33.91 45.8906 33.91 46.5627C33.91 47.2348 33.643 47.8794 33.1678 48.3546C32.6925 48.8299 32.0479 49.0969 31.3758 49.0969C30.7037 49.0969 30.0591 48.8299 29.5838 48.3546L26.3137 45.0795L23.4789 47.9142C22.7724 48.6199 22.212 49.4579 21.8298 50.3803C21.4476 51.3028 21.2511 52.2916 21.2516 53.2901V61.7487H29.7154C31.7286 61.747 33.6586 60.9458 35.0813 59.5214L63.2265 31.3766L51.6242 19.7694L45.0789 26.3146L48.3541 29.5847C48.8293 30.0599 49.0963 30.7045 49.0963 31.3766C49.0963 32.0487 48.8293 32.6933 48.3541 33.1686C47.8788 33.6438 47.2342 33.9108 46.5621 33.9108C45.89 33.9108 45.2454 33.6438 44.7701 33.1686L41.5 29.8935ZM72.0903 14.9251L68.076 10.9109L58.9997 19.9871L63.0139 24.0013L72.0903 14.9251Z" fill="#D93C3C" stroke="white"/>
</svg>
