<svg width="49" height="93" viewBox="0 0 49 93" fill="none" xmlns="http://www.w3.org/2000/svg">
<path d="M14.0934 26.6555C14.0934 25.7944 13.1585 24.0314 13.819 23.2059C14.3948 22.4861 15.0726 20.7989 15.8574 20.3834C16.6931 19.941 17.9958 19.8547 18.6799 19.2466C19.6764 18.3608 20.7228 19.2466 21.6788 19.2466C23.7665 19.2466 25.932 20.5262 28.0097 19.9326C28.1843 19.8827 28.8838 19.0432 29.2975 18.2973M29.2975 18.2973C29.6086 17.7365 29.7581 17.2286 29.4013 17.1493C28.1966 16.8816 27.3669 16.4722 26.5201 17.5609C25.9084 18.3473 27.9221 18.0462 29.2975 18.2973ZM29.2975 18.2973C29.8106 18.391 30.2348 18.5614 30.401 18.8938C30.9413 19.9744 31.1814 21.6735 32.0082 22.5002C32.8112 23.3033 32.8018 23.8732 32.7938 24.9219M32.7938 24.9219C32.793 25.0246 32.7922 25.1318 32.7922 25.2443C32.7922 25.7786 32.6571 25.4736 32.4127 24.9775M32.7938 24.9219C32.6648 24.9438 32.5369 24.9638 32.4127 24.9775M32.7938 24.9219C33.428 24.8142 34.0899 24.6596 34.4779 24.9699C35.359 25.6749 38.4417 27.1124 38.7704 28.2628C39.412 30.5087 37.4363 31.1932 36.1635 32.8297C34.9004 34.4537 34.2495 36.9977 32.8706 38.3766C31.581 39.6662 29.922 41.4897 28.9783 43.2348M32.4127 24.9775C32.1369 24.4178 31.7219 23.6148 31.2046 23.4999C29.4273 23.1049 27.6133 21.4738 25.736 21.3634C24.8427 21.3109 22.8204 21.0161 22.1296 21.6378C21.3305 22.3569 19.5166 22.8827 18.5035 23.1079C18.4723 23.1148 18.4417 23.1214 18.4116 23.1278M32.4127 24.9775C32.0383 25.0189 31.6973 25.0034 31.4594 24.8131C30.7316 24.2309 29.1644 24.5387 28.2057 24.5387C26.2278 24.5387 23.4315 24.9832 21.6788 24.0095C20.4669 23.3362 19.9084 23.1275 18.5035 23.1275C18.4722 23.1275 18.4415 23.1276 18.4116 23.1278M18.4116 23.1278C17.1264 23.3986 16.8686 23.1378 18.4116 23.1278ZM28.9783 43.2348C28.8243 43.5196 28.6893 43.8024 28.5781 44.0803C28.5257 44.2113 28.5798 43.7685 28.4801 43.6687C28.0585 43.2472 28.5531 43.1446 28.9783 43.2348ZM28.9783 43.2348C29.0087 43.2413 29.0388 43.2487 29.0681 43.2571C30.256 43.5965 29.1871 45.4627 31.0282 45.3544C31.1672 45.3462 31.3059 45.2991 31.443 45.2208M31.443 45.2208C31.5173 45.1783 31.5912 45.1267 31.6645 45.0671M31.443 45.2208C31.7717 44.6555 32.6906 43.2327 33.4864 41.9686M31.443 45.2208C31.2577 45.5393 31.2599 45.5857 31.577 45.178C31.6082 45.1378 31.6374 45.1009 31.6645 45.0671M31.6645 45.0671C31.7604 44.9891 31.8552 44.8975 31.9485 44.7951M31.6645 45.0671C31.8564 44.8281 31.9446 44.7492 31.9485 44.7951M31.9485 44.7951C32.659 44.015 33.2796 42.6086 33.6236 41.8148M31.9485 44.7951C31.9589 44.9175 31.3709 45.9267 30.5533 47.1551M33.6236 41.8148C33.6564 41.7392 33.6866 41.6691 33.7142 41.6057M33.6236 41.8148C33.5779 41.8664 33.5322 41.9177 33.4864 41.9686M33.6236 41.8148C34.4954 40.8289 35.3355 39.7162 35.5951 38.8078C35.6659 38.5599 35.7634 38.2645 35.8838 37.9543M33.7142 41.6057C33.7351 41.5577 33.7545 41.5134 33.7722 41.4735C34.1687 40.5815 34.6829 39.8239 35.2007 39.0369M33.7142 41.6057C34.0534 41.0634 34.3547 40.5717 34.5563 40.2191C34.7773 39.8322 34.9926 39.4375 35.2007 39.0369M33.7142 41.6057C33.6399 41.7245 33.5637 41.8458 33.4864 41.9686M35.2007 39.0369C35.4311 38.6867 35.6621 38.3306 35.8838 37.9543M35.2007 39.0369C35.403 38.6473 35.5984 38.2521 35.7856 37.853M35.8838 37.9543C35.8856 37.9513 35.8873 37.9484 35.8891 37.9454C35.9433 37.8532 35.996 37.7616 36.0475 37.6705M35.8838 37.9543C35.9143 37.876 35.9461 37.7968 35.9794 37.7171M36.0475 37.6705C36.0497 37.6666 36.0519 37.6626 36.0542 37.6587M36.0475 37.6705C36.0269 37.6845 36.0041 37.7002 35.9794 37.7171M36.0475 37.6705C36.119 37.6219 36.1635 37.5926 36.1635 37.5926C36.1635 37.5926 36.1232 37.6165 36.0542 37.6587M36.0542 37.6587C36.3538 37.128 36.6148 36.6147 36.9192 36.1014M36.0542 37.6587C36.034 37.671 36.0113 37.6849 35.9865 37.7002M36.9192 36.1014C36.9332 36.0777 36.9474 36.054 36.9616 36.0303M36.9192 36.1014C36.9029 36.1197 36.8868 36.1384 36.8707 36.1574M36.9192 36.1014C37.0105 35.9984 37.105 35.9064 37.2023 35.8286C37.7107 35.4219 39.1428 35.5683 39.1428 34.7701C39.1428 33.5814 36.9858 34.9215 36.7515 35.5541C36.529 36.1549 36.283 36.754 36.0179 37.3462M36.9616 36.0303C37.1387 35.7357 37.3314 35.4408 37.5551 35.1425C38.2368 34.2336 37.7029 34.993 36.9616 36.0303ZM36.9616 36.0303C36.9316 36.0722 36.9013 36.1147 36.8707 36.1574M36.8707 36.1574C36.756 36.3178 36.6375 36.4832 36.5187 36.6489M36.8707 36.1574C36.747 36.3041 36.6294 36.4705 36.5187 36.6489M36.5187 36.6489C36.349 36.8856 36.1787 37.1227 36.0179 37.3462M36.5187 36.6489C36.3163 36.9752 36.1372 37.3416 35.9865 37.7002M36.0179 37.3462C35.8574 37.5695 35.7065 37.7791 35.5753 37.9611M36.0179 37.3462C35.9478 37.5028 35.8764 37.6589 35.8037 37.8144M35.5753 37.9611C35.5503 37.9957 35.5261 38.0294 35.5027 38.0619M35.5753 37.9611C35.6567 37.908 35.7338 37.8586 35.8037 37.8144M35.5753 37.9611C35.1784 38.22 34.6781 38.5684 34.3995 38.847C33.5168 39.7297 32.9292 40.9495 32.165 41.9047C31.6888 42.4999 31.5954 43.4105 31.1066 44.0215C29.9872 45.4207 31.4445 44.0756 32.0082 43.5119C32.4187 43.1014 32.9531 42.5619 33.4864 41.9686M35.5027 38.0619C35.2632 38.3941 35.1051 38.6118 35.1051 38.6118C34.8472 38.6118 35.1541 38.3294 35.5027 38.0619ZM35.5027 38.0619C35.5974 37.9892 35.6953 37.9175 35.7856 37.853M35.7856 37.853C35.8565 37.8024 35.9228 37.7561 35.9794 37.7171M35.7856 37.853C35.7917 37.8401 35.7977 37.8273 35.8037 37.8144M35.9794 37.7171C35.9818 37.7115 35.9841 37.7059 35.9865 37.7002M35.9865 37.7002C35.9343 37.7324 35.8725 37.771 35.8037 37.8144M30.5533 47.1551C30.4699 47.2805 30.3841 47.408 30.2964 47.5372M30.5533 47.1551C28.6252 47.4761 26.2929 47.1065 24.8344 46.844C23.6005 46.6219 22.546 45.6783 21.6761 44.5176M30.5533 47.1551C30.5602 47.154 30.5671 47.1528 30.574 47.1517M30.2964 47.5372C29.2139 49.13 27.828 50.9621 26.8729 51.7049C25.5515 52.7326 24.2569 53.8211 22.9861 54.9474M30.2964 47.5372C30.3899 47.4104 30.4824 47.2817 30.574 47.1517M30.2964 47.5372C29.7567 48.2683 29.1801 48.9344 28.5193 49.4117C27.0222 50.4929 25.2125 51.8486 23.9916 53.273C23.6528 53.6682 23.2621 53.961 22.9136 54.3314C22.6603 54.6005 22.7857 54.7713 22.9861 54.9474M22.9861 54.9474C20.3039 57.3245 17.7278 59.87 15.2302 62.3676C14.9563 62.6415 14.6749 62.9026 14.3892 63.1561M22.9861 54.9474C23.14 55.0826 23.3381 55.2209 23.4428 55.4094C23.8704 56.1792 24.4879 57.3561 25.1088 57.9771C25.998 58.8663 28.0543 62.0552 29.7737 61.564C30.3514 61.3989 28.6635 55.6895 28.9897 55.037C29.2727 54.4711 30.1852 56.9831 30.6754 57.2715C31.3644 57.6768 31.9065 58.5666 32.7922 59.0355C34.0845 59.7197 36.7402 61.7971 37.0455 63.1712C37.3718 64.6396 39.4271 66.6112 40.4756 67.6597C42.2104 69.3945 39.4966 70.2127 37.9275 71.1094C37.5282 71.3375 37.121 71.5915 36.7441 71.8824M14.3892 63.1561C13.2395 64.1756 12.0177 65.0704 10.9181 66.1701C10.2542 66.834 9.202 67.4724 8.72285 68.2869C7.7327 69.9702 7.92498 68.8682 9.66367 69.3649C10.3315 69.5558 10.879 70.7959 11.2709 71.2858C11.8517 72.0118 12.6406 69.7034 12.9565 68.9925C13.143 68.5731 13.3678 68.1756 13.6189 67.7932M14.3892 63.1561C14.3296 63.9926 14.2579 64.8242 14.113 65.6213C13.9924 66.2843 13.8257 67.0394 13.6189 67.7932M14.3892 63.1561C14.4829 61.8409 14.5467 60.5137 14.8186 59.2903C14.9381 58.7526 15.9573 57.1289 15.681 57.3499C14.846 58.0179 13.8133 59.3913 13.3878 60.3487C12.6085 62.1021 12.4 61.3247 13.3878 59.8979C14.2038 58.7193 15.2417 57.6785 16.1318 56.5658C17.7919 54.4907 18.6326 51.2884 20.7448 49.4271M13.6189 67.7932C14.8521 65.9159 16.7205 64.4048 17.7979 62.4656C18.2887 61.582 19.1251 61.1152 19.7383 60.3487C20.0266 59.9883 20.3367 59.9957 20.6445 59.7938M13.6189 67.7932C13.3637 68.724 13.0475 69.6527 12.6821 70.4038C12.5628 70.649 11.4986 72.9416 11.9765 72.3442C12.2812 71.9634 12.7537 71.7744 13.035 71.3838C14.2648 69.6756 15.627 68.0996 16.4846 66.1701C16.8558 65.3349 17.4528 64.371 17.6411 63.524C17.9308 62.2204 19.5743 61.5115 20.0911 60.3487C20.1606 60.1924 20.4752 59.927 20.6445 59.7938M20.6445 59.7938C20.6692 59.7777 20.6938 59.7602 20.7183 59.7411C20.7913 59.6844 20.7419 59.7172 20.6445 59.7938ZM20.7448 49.4271C20.8193 49.3615 20.8954 49.2975 20.9731 49.2353C21.3159 48.9611 23.8262 46.5586 22.7372 47.6476C22.0118 48.373 21.6857 49.0747 21.9642 49.6898M20.7448 49.4271C21.1434 49.5523 21.5589 49.5965 21.9642 49.6898M20.7448 49.4271C20.6432 49.3953 20.5428 49.3582 20.4439 49.3137C19.3148 48.8056 18.6773 47.8179 17.6215 47.1968C16.5751 46.5813 15.6692 45.1662 14.799 44.296C13.4754 42.9724 11.7693 41.3655 11.2513 39.5526C10.9346 38.4443 10.0445 37.8752 9.87928 36.5538C9.74452 35.4757 9.50687 34.6763 9.50687 33.5157C9.50687 32.3675 9.10087 29.9536 9.70287 29.0076C9.85396 28.7702 9.99806 28.5327 10.1371 28.2916M21.9642 49.6898C22.1086 50.0088 22.4155 50.3044 22.9136 50.5681C23.717 50.9934 23.0733 50.1545 22.7176 49.9605C22.4751 49.8282 22.2217 49.7491 21.9642 49.6898ZM10.1371 28.2916C10.3704 27.8869 10.5894 27.4723 10.803 27.0314M10.1371 28.2916C10.3097 27.8422 10.5302 27.4179 10.803 27.0314M10.1371 28.2916C9.27674 30.5306 9.60267 33.3937 10.5653 35.3189C11.1362 36.4609 12.7016 36.9947 13.7406 37.5142C15.3917 38.3398 16.0593 40.3649 17.4451 41.4735C18.3386 42.1883 18.7062 43.2702 19.8951 43.6099C20.4109 43.7573 21.1375 44.1773 21.6761 44.5176M10.803 27.0314C10.9342 26.7605 11.0633 26.4797 11.1925 26.1851C11.7609 24.8892 11.7764 25.954 11.3493 26.3811C11.1479 26.5826 10.9661 26.8002 10.803 27.0314ZM21.6761 44.5176C22.0976 44.784 22.404 45.0016 22.404 45.0016C22.404 45.0016 21.8607 44.47 21.0811 43.6504M21.6761 44.5176C21.4671 44.2387 21.2687 43.9473 21.0811 43.6504M21.0811 43.6504C19.526 42.0153 17.0309 39.2339 16.0338 37.2398C15.2319 35.6359 15.0263 33.1174 13.5642 31.9477C12.9886 31.4872 12.0089 30.216 13.231 31.4381C15.9032 34.1103 18.0142 37.3089 19.5619 40.7483C19.9466 41.6031 20.4539 42.6576 21.0811 43.6504ZM30.574 47.1517C32.3246 46.8553 33.7372 45.9857 33.8506 43.9431C33.8833 43.3553 34.396 42.4754 34.9715 41.6797M30.574 47.1517C31.3769 46.0118 32.1132 44.7713 32.949 43.8647C33.618 43.1391 34.2892 42.4048 34.9715 41.6797M34.9715 41.6797C35.4616 41.002 35.9971 40.3854 36.3203 40.0623C36.8194 39.5631 39.8216 37.0697 38.4175 38.2982C37.2146 39.3508 36.0785 40.5032 34.9715 41.6797ZM36.7441 71.8824C36.667 71.9418 36.5912 72.0028 36.517 72.0655M36.7441 71.8824C36.8994 72.533 36.9261 72.9125 36.517 72.0655M36.7441 71.8824C36.6314 71.4106 36.4511 70.7963 36.3203 70.4038M36.517 72.0655C36.1796 72.3503 35.8752 72.6689 35.6343 73.0302C35.381 73.4102 35.3474 72.1628 35.1835 71.7366C34.8879 70.9681 34.2419 70.4422 33.6742 69.8745C32.7992 68.9996 31.8712 67.4694 30.8322 66.8757C29.9089 66.3481 27.7194 63.371 29.1857 64.8372C29.9023 65.5538 30.9402 65.8861 31.6554 66.6013C32.2019 67.1478 33.4274 68.2859 34.0466 68.6397C35.1534 69.2721 35.8297 70.5348 36.3203 71.6386C36.3948 71.8063 36.4601 71.9477 36.517 72.0655ZM35.9675 67.5813C34.5649 66.88 33.3862 62.7715 32.6158 61.2307C32.2012 60.4016 31.8084 58.7984 31.0282 58.4083M20.7967 18.541C24.4324 18.541 28.8381 18.6618 32.0082 20.6578C33.1091 21.351 34.1146 22.1782 35.2619 22.8531C35.7556 23.1435 36.6731 23.8009 36.6731 24.3819C36.6731 27.0593 37.7321 29.8187 38.0059 32.4965C38.067 33.094 38.0602 33.6983 38.0484 34.3026M38.0484 34.3026C38.0337 35.0575 38.0112 35.8123 38.1039 36.5538C38.1623 37.0203 39.1212 39.1115 39.1428 38.5726C39.2036 37.0507 39.9151 35.4806 40.8284 34.3389C41.5727 33.4085 39.2507 33.9692 38.0484 34.3026ZM38.0484 34.3026C37.6789 34.4051 37.4152 34.4861 37.3787 34.4957C35.8131 34.9102 33.2325 34.7333 32.2434 36.005C31.5259 36.9275 31.381 36.6816 31.381 38.0238C31.381 39.267 31.2995 40.525 30.8518 41.6891C30.4323 42.7797 30.4218 44.3088 29.6169 45.1584C28.7681 46.0544 28.3016 47.8581 27.3237 48.5101C25.7518 49.558 24.5036 51.3298 23.2664 52.7438C22.4854 53.6363 21.9534 54.6927 21.1495 55.5858C20.3663 56.4561 19.3755 57.0462 18.5427 57.8791C16.7093 59.7124 14.2684 62.654 11.8197 64.0532C11.1737 64.4223 11.1819 63.6089 10.9181 63.8572C9.96902 64.7505 8.99195 65.932 8.29164 67.0325C7.79208 67.8175 6.46629 68.9252 5.62598 69.3453" stroke-width="6" stroke-linecap="round"/>
<path fill-rule="evenodd" clip-rule="evenodd" d="M28.6463 13.0244C30.2319 13.0244 31.7042 13.38 33.0175 14.1318C34.1395 14.774 35.4133 15.6585 36.3551 16.9792L36.3348 16.9937L36.3533 17.0185L40.1741 21.9795L41.5194 23.7765C45.667 29.2634 45.6662 36.9034 41.5172 42.3896L34.1324 51.9388L48.1603 69.9191L35.7645 79.3258L24.1981 64.5536L12.6322 79.3253L0.236328 69.9184L14.2723 51.928L6.88916 42.5513L6.87949 42.5385C2.73045 37.0524 2.72963 29.4126 6.87703 23.9256L6.87949 23.9223L8.20897 22.1463L12.0376 17.1748C12.0958 17.0968 12.1553 17.0194 12.2159 16.9426C14.0347 14.4193 17.0572 13.0244 20.0468 13.0244H28.6463ZM31.3914 16.9822C32.2945 17.4991 33.0616 18.0652 33.5998 18.7679L33.5758 18.7868L33.7399 18.9997C35.4504 21.3144 35.4383 24.5637 33.7033 26.865C32.1727 25.9298 30.3524 25.3509 28.498 25.3509H19.8987C18.0595 25.3509 16.1834 25.8443 14.5874 26.8676C13.7962 25.7397 13.3829 24.3134 13.3829 22.9829C13.3829 21.645 13.8027 20.304 14.6507 19.1568L14.8392 18.912L14.8567 18.8874C16.0063 17.2753 18.0101 16.3074 20.0468 16.3074H28.6463C29.7293 16.3074 30.6291 16.5458 31.3914 16.9822ZM16.602 29.4831L24.1407 39.2369L31.6786 29.4838C30.6975 28.9499 29.5838 28.6339 28.498 28.6339H19.8987C18.7201 28.6339 17.5728 28.9265 16.602 29.4831ZM32.0426 49.2802L26.2209 41.9082L36.1614 29.0465C37.1864 27.7594 37.8414 26.2665 38.1265 24.7164L38.9046 25.7557C42.1661 30.0682 42.1679 36.0858 38.9098 40.4003L32.0426 49.2802ZM16.3609 54.5822L4.86731 69.3142L12.0424 74.7588L22.1137 61.8961L16.3609 54.5822ZM12.2351 29.1956C11.216 27.9155 10.5703 26.3862 10.2816 24.8502L9.49666 25.8985L9.49191 25.9047C6.23187 30.2154 6.22876 36.2297 9.48257 40.5437L17.7757 51.076L25.4876 60.881L36.3542 74.7595L43.5293 69.3147L30.771 52.9618L30.7651 52.9542L22.9129 43.0114L12.2351 29.1956Z" fill="#DA3F3F"/>
</svg>
