<svg width="143" height="184" viewBox="0 0 143 184" fill="none" xmlns="http://www.w3.org/2000/svg">
<g id="Group">
<path id="Vector" d="M35.1847 127.39C28.523 134.503 22.1758 140.982 16.5167 146.596C15.3116 147.792 15.3034 149.739 16.4995 150.944C17.1004 151.55 17.8911 151.853 18.6818 151.853C19.4647 151.853 20.2476 151.556 20.8469 150.961C40.4375 131.524 68.1823 101.863 89.1023 70.9321C96.9428 59.3393 100.919 46.9612 100.919 34.1421C100.919 26.5643 98.4373 19.555 94.2441 13.8841C109.376 23.1588 119.493 39.8524 119.493 58.8639C119.493 66.3232 118.094 74.1129 115.218 82.6785C114.678 84.2882 115.544 86.0311 117.153 86.5718C118.764 87.1124 120.506 86.2459 121.047 84.6362C124.138 75.4295 125.641 66.9995 125.641 58.8639C125.641 26.4065 99.235 0 66.7768 0C34.3186 0 7.91211 26.4065 7.91211 58.8647C7.91211 76.794 15.4432 92.8948 19.4889 101.545C22.6488 108.3 27.9307 116.994 35.1847 127.39ZM84.0097 67.4877C78.6396 75.4278 72.8064 83.286 66.776 90.9097C60.4176 82.8675 54.6258 75.0011 49.5438 67.4877C46.1626 62.4882 43.5806 57.339 41.789 52.0764C48.4974 45.4807 57.3163 41.8629 66.7768 41.8629C76.1106 41.8629 85.1193 45.5655 91.765 52.0759C89.9729 57.339 87.3914 62.4882 84.0097 67.4877ZM66.7768 6.14847C82.2127 6.14847 94.7704 18.7065 94.7704 34.1425C94.7704 37.9533 94.3691 41.7252 93.587 45.4487C86.1088 39.2137 76.5984 35.714 66.7768 35.714C56.8154 35.714 47.4624 39.1363 39.9633 45.4348C39.1833 41.7154 38.7832 37.9484 38.7832 34.1421C38.7828 18.7065 51.3412 6.14847 66.7768 6.14847ZM39.3095 13.8845C35.1162 19.555 32.6347 26.5643 32.6347 34.1425C32.6347 46.9616 36.6103 59.3397 44.4513 70.9325C49.8517 78.9169 56.0338 87.2854 62.8319 95.8314C55.0935 105.356 47.1283 114.443 39.4653 122.778C32.8056 113.159 27.9611 105.145 25.0582 98.9392C21.2149 90.722 14.0606 75.427 14.0606 58.8643C14.0606 39.8528 24.1769 23.1593 39.3095 13.8845Z" fill="#D93C3C"/>
<path id="Vector_2" d="M138.954 167.472C131.088 160.304 115.561 145.747 98.3661 127.395C104.86 118.089 110.578 108.999 114.065 101.544C114.764 100.049 115.582 98.2914 116.443 96.3493C117.132 94.7974 116.432 92.9812 114.88 92.2925C113.328 91.6043 111.512 92.3044 110.823 93.8563C109.985 95.7467 109.182 97.4712 108.496 98.939C95.1374 127.499 45.3819 185.155 28.7252 202.249C27.8099 203.189 26.5835 203.711 25.2718 203.719C23.9429 203.725 22.7223 203.22 21.793 202.29L-1.42689 179.059C-2.3758 178.11 -2.88121 176.848 -2.85005 175.506C-2.81849 174.162 -2.25365 172.923 -1.25883 172.017C3.03362 168.106 7.5175 163.905 12.0682 159.533C13.2926 158.357 13.3315 156.411 12.1551 155.187C10.9791 153.963 9.0329 153.924 7.80812 155.1C3.29637 159.435 -1.14775 163.597 -5.40003 167.472C-7.64832 169.521 -8.92598 172.323 -8.99689 175.363C-9.0678 178.401 -7.92378 181.257 -5.77591 183.406L17.444 206.637C19.5287 208.723 22.2939 209.868 25.2386 209.868H25.3108C28.2801 209.849 31.0567 208.668 33.1288 206.541C40.2872 199.193 53.1339 184.864 66.7769 168.386C80.5474 185.016 93.4486 199.381 100.425 206.54C102.497 208.667 105.274 209.848 108.243 209.867H108.316C111.26 209.867 114.026 208.721 116.11 206.636L139.33 183.406C141.478 181.256 142.622 178.4 142.551 175.362C142.48 172.323 141.203 169.52 138.954 167.472ZM134.981 179.059L111.761 202.29C110.839 203.213 109.616 203.719 108.314 203.719C108.304 203.719 108.293 203.719 108.282 203.719C106.97 203.711 105.744 203.189 104.829 202.249C97.8111 195.047 84.6968 180.431 70.7542 163.548C72.1552 161.832 73.5595 160.099 74.9622 158.353C81.1438 150.657 88.1818 141.604 94.7365 132.51C111.733 150.585 127.01 164.907 134.813 172.017C135.807 172.923 136.373 174.162 136.404 175.506C136.436 176.848 135.93 178.11 134.981 179.059Z" fill="#D93C3C"/>
</g>
</svg>
