<svg width="49" height="67" viewBox="0 0 49 67" fill="none" xmlns="http://www.w3.org/2000/svg">
<path fill-rule="evenodd" clip-rule="evenodd" d="M28.6463 0.0244141C30.2319 0.0244141 31.7042 0.380044 33.0175 1.13178C34.1395 1.77403 35.4133 2.65848 36.3551 3.97916L36.3347 3.99369L36.3533 4.01849L40.1741 8.9795L41.5194 10.7765C45.667 16.2634 45.6662 23.9034 41.5172 29.3896L34.1324 38.9388L48.1603 56.9191L35.7645 66.3258L24.1981 51.5536L12.6322 66.3253L0.236328 56.9184L14.2723 38.928L6.88916 29.5513L6.87949 29.5385C2.73045 24.0524 2.72963 16.4126 6.87703 10.9256L6.87949 10.9223L8.20897 9.14634L12.0376 4.17485C12.0958 4.09679 12.1553 4.01937 12.2159 3.94261C14.0347 1.41927 17.0572 0.0244141 20.0468 0.0244141H28.6463ZM31.3914 3.98222C32.2945 4.49914 33.0616 5.06522 33.5998 5.76794L33.5758 5.78679L33.7399 5.99973C35.4504 8.31443 35.4383 11.5637 33.7033 13.865C32.1727 12.9298 30.3524 12.3509 28.498 12.3509H19.8987C18.0595 12.3509 16.1834 12.8443 14.5874 13.8676C13.7962 12.7397 13.3829 11.3134 13.3829 9.98286C13.3829 8.64499 13.8027 7.30398 14.6507 6.15677L14.8392 5.91196L14.8567 5.88735C16.0063 4.27532 18.0101 3.3074 20.0468 3.3074H28.6463C29.7293 3.3074 30.6291 3.54583 31.3914 3.98222ZM16.602 16.4831L24.1407 26.2369L31.6786 16.4838C30.6975 15.9499 29.5838 15.6339 28.498 15.6339H19.8987C18.7201 15.6339 17.5728 15.9265 16.602 16.4831ZM32.0426 36.2802L26.2209 28.9082L36.1614 16.0465C37.1864 14.7594 37.8414 13.2665 38.1265 11.7164L38.9046 12.7557C42.1661 17.0682 42.1679 23.0858 38.9098 27.4003L32.0426 36.2802ZM16.3609 41.5822L4.86731 56.3142L12.0424 61.7588L22.1137 48.8961L16.3609 41.5822ZM12.2351 16.1956C11.216 14.9155 10.5703 13.3862 10.2816 11.8502L9.49666 12.8985L9.49191 12.9047C6.23187 17.2154 6.22876 23.2297 9.48257 27.5437L17.7757 38.076L25.4876 47.881L36.3542 61.7595L43.5293 56.3147L30.771 39.9618L30.7651 39.9542L22.9129 30.0114L12.2351 16.1956Z" fill="black"/>
</svg>
