<svg width="151.55" height="209.87" viewBox="0 0 152 210" fill="none" xmlns="http://www.w3.org/2000/svg">
  <g>
    <path d="M44.1847 127.39C37.523 134.503 31.1758 140.982 25.5167 146.596C24.3116 147.792 24.3034 149.739 25.4995 150.944C26.1004 151.55 26.8911 151.853 27.6818 151.853C28.4647 151.853 29.2476 151.556 29.8469 150.961C49.4375 131.524 77.1823 101.863 98.1023 70.9321C105.943 59.3393 109.919 46.9612 109.919 34.1421C109.919 26.5643 107.437 19.555 103.244 13.8841C118.376 23.1588 128.493 39.8524 128.493 58.8639C128.493 66.3232 127.094 74.1129 124.218 82.6785C123.678 84.2882 124.544 86.0311 126.153 86.5718C127.764 87.1124 129.506 86.2459 130.047 84.6362C133.138 75.4295 134.641 66.9995 134.641 58.8639C134.641 26.4065 108.235 0 75.7768 0C43.3186 0 16.9121 26.4065 16.9121 58.8647C16.9121 76.794 24.4432 92.8948 28.4889 101.545C31.6488 108.3 36.9307 116.994 44.1847 127.39ZM93.0097 67.4877C87.6396 75.4278 81.8064 83.286 75.776 90.9097C69.4176 82.8675 63.6258 75.0011 58.5438 67.4877C55.1626 62.4882 52.5806 57.339 50.789 52.0764C57.4974 45.4807 66.3163 41.8629 75.7768 41.8629C85.1106 41.8629 94.1193 45.5655 100.765 52.0759C98.9729 57.339 96.3914 62.4882 93.0097 67.4877ZM75.7768 6.14847C91.2127 6.14847 103.77 18.7065 103.77 34.1425C103.77 37.9533 103.369 41.7252 102.587 45.4487C95.1088 39.2137 85.5984 35.714 75.7768 35.714C65.8154 35.714 56.4624 39.1363 48.9633 45.4348C48.1833 41.7154 47.7832 37.9484 47.7832 34.1421C47.7828 18.7065 60.3412 6.14847 75.7768 6.14847ZM48.3095 13.8845C44.1162 19.555 41.6347 26.5643 41.6347 34.1425C41.6347 46.9616 45.6103 59.3397 53.4513 70.9325C58.8517 78.9169 65.0338 87.2854 71.8319 95.8314C64.0935 105.356 56.1283 114.443 48.4653 122.778C41.8056 113.159 36.9611 105.145 34.0582 98.9392C30.215 90.722 23.0606 75.427 23.0606 58.8643C23.0606 39.8528 33.1769 23.1593 48.3095 13.8845Z" fill="#D93C3C"/>
    <path d="M147.954 167.472C140.088 160.304 124.561 145.747 107.366 127.395C113.86 118.089 119.578 108.999 123.065 101.544C123.764 100.049 124.582 98.2914 125.443 96.3493C126.132 94.7974 125.432 92.9812 123.88 92.2925C122.328 91.6043 120.512 92.3044 119.823 93.8563C118.985 95.7467 118.182 97.4712 117.496 98.939C104.137 127.499 54.3819 185.155 37.7252 202.249C36.8099 203.189 35.5835 203.711 34.2718 203.719C32.9429 203.725 31.7223 203.22 30.793 202.29L7.57311 179.059C6.6242 178.11 6.11879 176.848 6.14995 175.506C6.18151 174.162 6.74635 172.923 7.74117 172.017C12.0336 168.106 16.5175 163.905 21.0682 159.533C22.2926 158.357 22.3315 156.411 21.1551 155.187C19.9791 153.963 18.0329 153.924 16.8081 155.1C12.2964 159.435 7.85225 163.597 3.59997 167.472C1.35168 169.521 0.0740219 172.323 0.00310948 175.363C-0.0678029 178.401 1.07622 181.257 3.22409 183.406L26.444 206.637C28.5287 208.723 31.2939 209.868 34.2386 209.868H34.3108C37.2801 209.849 40.0567 208.668 42.1288 206.541C49.2872 199.193 62.1339 184.864 75.7769 168.386C89.5474 185.016 102.449 199.381 109.425 206.54C111.497 208.667 114.274 209.848 117.243 209.867H117.316C120.26 209.867 123.026 208.721 125.11 206.636L148.33 183.406C150.478 181.256 151.622 178.4 151.551 175.362C151.48 172.323 150.203 169.52 147.954 167.472ZM143.981 179.059L120.761 202.29C119.839 203.213 118.616 203.719 117.314 203.719C117.304 203.719 117.293 203.719 117.282 203.719C115.97 203.711 114.744 203.189 113.829 202.249C106.811 195.047 93.6968 180.431 79.7542 163.548C81.1552 161.832 82.5595 160.099 83.9622 158.353C90.1438 150.657 97.1818 141.604 103.736 132.51C120.733 150.585 136.01 164.907 143.813 172.017C144.807 172.923 145.373 174.162 145.404 175.506C145.436 176.848 144.93 178.11 143.981 179.059Z" fill="#D93C3C"/>
  </g>
</svg>