<svg width="81" height="77" viewBox="0 0 81 77" fill="none" xmlns="http://www.w3.org/2000/svg">
<g id="&#208;&#152;&#208;&#186;&#208;&#190;&#208;&#189; &#208;&#177;&#208;&#181;&#209;&#128;&#208;&#181;&#208;&#188;&#208;&#181;&#208;&#189;&#208;&#189;&#208;&#190;&#209;&#129;&#209;&#130;&#209;&#140;">
<path id="Vector" fill-rule="evenodd" clip-rule="evenodd" d="M23.3999 76.8032C23.9394 77.0445 24.5529 77.0647 25.1073 76.8594C25.6617 76.6542 26.1126 76.24 26.3623 75.7065C26.612 75.173 26.6404 74.5631 26.4413 74.009C26.2423 73.4548 25.8319 73.0009 25.2989 72.7456C19.7389 70.1696 14.9327 66.2234 11.3364 61.2812C7.74012 56.339 5.47289 50.5648 4.74983 44.5064C4.02678 38.4479 4.87188 32.3062 7.20497 26.6639C9.53805 21.0215 13.2817 16.0656 18.0809 12.2664L19.0101 13.4593C19.2711 13.7928 19.5254 14.1151 19.7639 14.4262C20.7066 15.6459 21.4694 16.7045 21.9801 17.6691C22.4931 18.6404 22.6259 19.2895 22.5831 19.7326C22.5494 20.0818 22.3851 20.5831 21.5706 21.25L19.8899 22.6264C18.5624 23.7119 17.7299 25.0883 17.4981 26.599C17.2709 28.0985 17.6691 29.5443 18.4701 30.7125C20.0766 33.0558 23.2244 34.242 26.5859 33.3535C26.8851 33.2729 27.1034 33.2259 27.2586 33.1968C27.3486 33.3445 27.4611 33.5392 27.6231 33.8235L28.0259 34.712C27.5706 34.7451 27.1198 34.8239 26.6804 34.947L18.8009 37.1649C17.0781 37.6495 15.6194 38.7951 14.7458 40.3495C13.8721 41.9039 13.655 43.7399 14.1422 45.4535C14.6295 47.1672 15.7811 48.6181 17.3438 49.4871C18.9066 50.3562 20.7523 50.5721 22.4751 50.0874L24.4506 49.5302L26.7726 55.47C27.228 56.6344 28.0011 57.6493 29.0047 58.4005C30.0084 59.1517 31.2029 59.6095 32.4539 59.7223C39.9914 60.4049 46.1024 57.8871 50.1029 53.9705C52.0536 52.0637 53.5251 49.7987 54.3554 47.413C55.1519 45.1301 55.5388 42.1669 54.4319 39.2664C53.9018 37.8795 52.9248 36.7063 51.6536 35.9301C50.3823 35.1539 48.8883 34.8184 47.4051 34.9761L45.9471 35.1327L45.0336 31.9099C44.6236 30.4579 43.7341 29.1855 42.5084 28.2978C41.2827 27.41 39.7922 26.9586 38.2771 27.0162C36.762 27.0739 35.3105 27.6372 34.1566 28.6155C33.0026 29.5938 32.2134 30.9301 31.9161 32.409L31.6416 31.8002L31.5471 31.6346C31.3266 31.2452 31.0746 30.7998 30.8069 30.4261C30.4452 29.8904 29.9629 29.4459 29.3984 29.128C28.0439 28.3984 26.5544 28.7274 25.4271 29.0273C23.7261 29.4771 22.6146 28.8147 22.1871 28.1903C21.991 27.925 21.9055 27.5946 21.9486 27.2682C21.9891 26.9951 22.1579 26.5654 22.7474 26.082L24.4304 24.7078C25.9671 23.45 26.8941 21.9237 27.0629 20.1511C27.2204 18.4726 26.6624 16.9082 25.9604 15.5855C25.2584 14.2516 24.2841 12.9312 23.3324 11.698L22.4976 10.6282L21.7731 9.70163C28.8925 5.38711 37.2968 3.66445 45.551 4.82775C53.8052 5.99104 61.3976 9.96817 67.0318 16.0801C71.8443 21.2997 74.9927 27.8215 76.0788 34.8209C77.1649 41.8203 76.1401 48.9828 73.1338 55.4028C73.009 55.6693 72.9381 55.9575 72.9253 56.2512C72.9125 56.5449 72.9579 56.8382 73.059 57.1144C73.1602 57.3906 73.315 57.6443 73.5147 57.8609C73.7144 58.0776 73.955 58.253 74.2228 58.3772C74.4907 58.5014 74.7805 58.5719 75.0757 58.5847C75.371 58.5974 75.6658 58.5522 75.9435 58.4516C76.2212 58.351 76.4762 58.197 76.694 57.9984C76.9119 57.7998 77.0883 57.5604 77.2131 57.294C80.5951 50.0714 81.7479 42.0134 80.5259 34.1391C79.3038 26.2647 75.7617 18.9277 70.3476 13.0557C64.9334 7.18376 57.8903 3.04064 50.1089 1.15027C42.3275 -0.740103 34.1573 -0.292817 26.6314 2.43556C19.1056 5.16394 12.5621 10.0509 7.8285 16.4784C3.09488 22.9059 0.383692 30.5853 0.0377904 38.5455C-0.308111 46.5057 1.72681 54.3891 5.88522 61.1989C10.0436 68.0087 16.1388 73.439 23.3999 76.8032ZM37.9259 31.5764C38.2103 31.4966 38.5077 31.4733 38.8011 31.5078C39.0946 31.5424 39.3783 31.6341 39.6361 31.7777C39.894 31.9213 40.1208 32.114 40.3038 32.3448C40.4867 32.5756 40.6222 32.84 40.7024 33.1229L42.1311 38.1631C42.2749 38.6723 42.5953 39.1145 43.0356 39.4111C43.4759 39.7077 44.0076 39.8396 44.5364 39.7834L47.8821 39.4253C48.3771 39.3724 48.8759 39.4843 49.3001 39.7435C49.7244 40.0027 50.0502 40.3946 50.2266 40.8577C50.8409 42.4691 50.6789 44.2953 50.1051 45.947C49.5201 47.6278 48.4469 49.3153 46.9484 50.7812C43.9199 53.7422 39.1274 55.8326 32.8611 55.2663C32.4441 55.2289 32.0458 55.0765 31.7111 54.8262C31.3764 54.5759 31.1186 54.2377 30.9666 53.8496L27.9044 46.0119C27.7016 45.4931 27.3117 45.068 26.8108 44.8197C26.3099 44.5714 25.7339 44.5177 25.1954 44.6691L21.2511 45.7792C20.6808 45.9293 20.0739 45.8506 19.5614 45.56C19.0488 45.2694 18.6714 44.7902 18.5106 44.2256C18.3499 43.6609 18.4185 43.056 18.7017 42.5412C18.9849 42.0264 19.4601 41.6428 20.0249 41.4731L27.9066 39.2552C28.4452 39.1038 29.0211 39.1575 29.522 39.4058C30.0229 39.6541 30.4128 40.0792 30.6156 40.5981L34.0581 49.4004C34.2353 49.853 34.5556 50.2359 34.9709 50.4915C35.3861 50.7471 35.8736 50.8613 36.3599 50.8171C38.8754 50.5865 40.8869 49.7741 42.4101 48.7245C42.8095 48.4497 43.1089 48.0538 43.2634 47.5958C43.4179 47.1379 43.4193 46.6425 43.2674 46.1837C43.1155 45.7248 42.8185 45.3272 42.4206 45.0502C42.0228 44.7732 41.5455 44.6316 41.0601 44.6467C40.5591 44.661 40.0676 44.5084 39.6637 44.2133C39.2598 43.9181 38.9665 43.4972 38.8304 43.0174L36.3711 34.3382C36.2909 34.0553 36.2674 33.7595 36.3021 33.4676C36.3369 33.1757 36.429 32.8935 36.5734 32.637C36.7178 32.3806 36.9115 32.1549 37.1436 31.9729C37.3756 31.7909 37.6415 31.6562 37.9259 31.5764Z" fill="#D93C3C"/>
<path id="Vector_2" fill-rule="evenodd" clip-rule="evenodd" d="M53.5204 34.5057C54.5209 35.0407 55.618 35.373 56.7484 35.4835C57.8788 35.594 59.02 35.4805 60.106 35.1495C61.192 34.8186 62.2013 34.2767 63.0754 33.5553C63.9496 32.834 64.6712 31.9473 65.1987 30.9468C65.7262 29.9462 66.0491 28.8515 66.1486 27.726C66.2481 26.6006 66.1222 25.4667 65.7784 24.3899C65.4345 23.3131 64.8795 22.3148 64.1453 21.4527C63.4111 20.5906 62.5124 19.8819 61.5012 19.3675C59.4857 18.3423 57.145 18.1496 54.9876 18.8312C52.8301 19.5129 51.0302 21.0138 49.979 23.0079C48.9277 25.002 48.7099 27.3282 49.3731 29.4811C50.0362 31.634 51.5266 33.4396 53.5204 34.5057ZM55.6107 30.5399C56.0878 30.8063 56.6138 30.9749 57.1576 31.0356C57.7014 31.0964 58.2519 31.048 58.7765 30.8934C59.3012 30.7389 59.7894 30.4812 60.2122 30.1357C60.635 29.7902 60.9838 29.3639 61.2381 28.8819C61.4924 28.4 61.647 27.8722 61.6927 27.3298C61.7383 26.7874 61.6742 26.2415 61.5041 25.7242C61.3339 25.2068 61.0612 24.7287 60.7021 24.3181C60.3429 23.9074 59.9047 23.5726 59.4132 23.3333C58.4561 22.8675 57.3542 22.7913 56.3416 23.1208C55.3289 23.4503 54.4854 24.1597 53.9903 25.0981C53.4951 26.0365 53.3874 27.13 53.69 28.1462C53.9926 29.1623 54.6816 30.0211 55.6107 30.5399Z" fill="#D93C3C"/>
</g>
</svg>
