<svg width="183" height="189" viewBox="0 0 183 189" fill="none" xmlns="http://www.w3.org/2000/svg">
<g id="blood_xkdbbgukaliu 1">
<path id="Vector" d="M80.8125 54.5C90.2442 54.5 99.4641 57.2968 107.306 62.5368C115.148 67.7768 121.261 75.2245 124.87 83.9383C128.479 92.652 129.424 102.24 127.584 111.491C125.744 120.741 121.202 129.238 114.533 135.908C107.863 142.577 99.3663 147.119 90.1158 148.959C80.8654 150.799 71.277 149.854 62.5633 146.245C53.8495 142.636 46.4017 136.523 41.1618 128.681C35.9218 120.839 33.125 111.619 33.125 102.188C33.1385 89.5441 38.167 77.4225 47.1073 68.4823C56.0475 59.5421 68.1691 54.5135 80.8125 54.5ZM70.5937 88.5625C71.9411 88.5625 73.2582 88.163 74.3786 87.4144C75.4989 86.6658 76.372 85.6019 76.8877 84.357C77.4033 83.1122 77.5382 81.7424 77.2753 80.4209C77.0125 79.0995 76.3636 77.8856 75.4109 76.9328C74.4581 75.9801 73.2443 75.3313 71.9228 75.0684C70.6013 74.8055 69.2315 74.9404 67.9867 75.4561C66.7419 75.9717 65.6779 76.8449 64.9293 77.9652C64.1808 79.0855 63.7812 80.4026 63.7812 81.75C63.7812 83.5568 64.499 85.2896 65.7766 86.5672C67.0541 87.8448 68.7869 88.5625 70.5937 88.5625ZM63.7165 70.0563C64.7993 69.4123 65.9679 68.9249 67.1875 68.6087V63.6969C64.8534 64.5224 62.5994 65.5588 60.4533 66.7932L63.7165 70.0563ZM80.8125 143.063C86.4899 143.098 92.1125 141.95 97.3219 139.693C102.531 137.435 107.213 134.117 111.069 129.95C114.925 125.782 117.871 120.858 119.718 115.489C121.566 110.12 122.275 104.426 121.8 98.7682C121.325 93.1105 119.676 87.6139 116.959 82.6286C114.242 77.6433 110.517 73.2786 106.02 69.8128C101.523 66.347 96.3531 63.856 90.8402 62.4986C85.3273 61.1413 79.592 60.9473 74 61.929V68.6087C75.2195 68.9249 76.3881 69.4123 77.4709 70.0563L81.8105 65.7168L86.6269 70.5332L82.2874 74.8728C82.9315 75.9556 83.4189 77.1242 83.735 78.3438H91.0312V85.1563H83.735C83.4189 86.3758 82.9315 87.5444 82.2874 88.6272L86.6269 92.9668L81.8105 97.7832L77.4709 93.4437C76.3881 94.0878 75.2195 94.5751 74 94.8913V102.188H67.1875V94.8913C65.9679 94.5751 64.7993 94.0878 63.7165 93.4437L59.3769 97.7832L54.5605 92.9668L58.9001 88.6272C58.256 87.5444 57.7686 86.3758 57.4524 85.1563H50.1562V78.3438H57.4524C57.7686 77.1242 58.256 75.9556 58.9001 74.8728L54.7513 70.724C48.2711 76.0852 43.6034 83.3157 41.3851 91.4283C39.1669 99.5409 39.5062 108.14 42.3569 116.053C45.2075 123.966 50.4306 130.806 57.313 135.64C64.1955 140.474 72.4021 143.066 80.8125 143.063Z" fill="#D93C3C"/>
<path id="Vector_2" d="M16.5263 144.626C16.256 144.148 16.1074 143.611 16.0937 143.063C16.0939 142.159 16.4529 141.293 17.0917 140.654L26.7314 131.015C21.2622 120.899 18.7594 109.445 19.5108 97.9697C20.2622 86.4946 24.2374 75.4647 30.9791 66.1485C37.7208 56.8324 46.9552 49.6083 57.6202 45.3073C68.2852 41.0062 79.9477 39.8029 91.2662 41.8356C104.953 21.5991 118.932 4.8029 119.075 4.62918C119.405 4.2634 119.808 3.97098 120.259 3.77084C120.709 3.5707 121.196 3.46729 121.689 3.46729C122.182 3.46729 122.669 3.5707 123.12 3.77084C123.57 3.97098 123.973 4.2634 124.303 4.62918C126.562 7.33375 179.594 71.2077 179.594 102.188C179.604 111.12 177.545 119.934 173.578 127.937C169.612 135.941 163.845 142.917 156.731 148.319C149.617 153.721 141.349 157.401 132.574 159.073C123.799 160.744 114.757 160.36 106.155 157.951C97.6105 161.872 88.2742 163.76 78.8777 163.468C69.4813 163.176 60.2801 160.712 51.9956 156.269L42.3559 165.908C41.8528 166.433 41.1883 166.773 40.4689 166.875C39.7494 166.977 39.0165 166.834 38.3876 166.47L-5.21239 210.07C-6.64127 211.531 -8.34555 212.693 -10.2266 213.49C-12.1077 214.287 -14.1282 214.704 -16.1712 214.715C-18.2142 214.726 -20.2392 214.332 -22.1288 213.555C-24.0185 212.779 -25.7354 211.635 -27.1802 210.19C-28.6249 208.746 -29.7689 207.029 -30.5457 205.14C-31.3226 203.25 -31.7171 201.225 -31.7062 199.182C-31.6954 197.139 -31.2794 195.119 -30.4825 193.237C-29.6856 191.356 -28.5235 189.652 -27.0635 188.223L16.5263 144.626ZM121.687 153.281C135.234 153.266 148.221 147.878 157.799 138.299C167.378 128.721 172.766 115.734 172.781 102.188C172.781 77.3458 132.458 25.5844 121.687 12.2013C117.259 17.6819 107.889 29.6311 98.3955 43.4741C109.498 46.7911 119.433 53.1888 127.046 61.9248C134.659 70.6607 139.638 81.3766 141.406 92.8287C143.174 104.281 141.657 115.999 137.033 126.624C132.409 137.249 124.866 146.345 115.28 152.856C117.405 153.131 119.545 153.273 121.687 153.281ZM135.312 102.188C135.312 91.4085 132.116 80.8715 126.128 71.909C120.139 62.9465 111.627 55.9611 101.669 51.8362C91.7101 47.7112 80.752 46.6319 70.18 48.7348C59.6081 50.8377 49.8971 56.0283 42.2751 63.6503C34.6532 71.2722 29.4626 80.9832 27.3597 91.5552C25.2568 102.127 26.336 113.085 30.461 123.044C34.586 133.002 41.5714 141.514 50.5339 147.503C59.4964 153.491 70.0334 156.688 80.8125 156.688C95.2615 156.67 109.114 150.923 119.331 140.706C129.548 130.489 135.295 116.637 135.312 102.188ZM46.0142 152.6C39.9142 148.376 34.625 143.088 30.4 136.989L24.3164 143.063L39.9375 158.684L46.0142 152.6ZM-16.1396 207.781C-15.0051 207.784 -13.8813 207.563 -12.833 207.129C-11.7847 206.695 -10.8328 206.058 -10.0322 205.254L33.4179 161.797L21.2031 149.582L-22.2504 193.039C-23.4589 194.247 -24.2819 195.786 -24.6152 197.462C-24.9486 199.138 -24.7773 200.875 -24.1231 202.453C-23.4688 204.031 -22.361 205.38 -20.9399 206.329C-19.5188 207.277 -17.8482 207.783 -16.1396 207.781Z" fill="#D93C3C"/>
<path id="Vector_3" d="M79.3376 112.342L74.998 108.002L79.8145 103.186L84.154 107.525C85.2368 106.881 86.4054 106.394 87.625 106.077V98.7812H94.4375V106.077C95.6571 106.394 96.8257 106.881 97.9085 107.525L102.248 103.186L107.064 108.002L102.725 112.342C103.369 113.424 103.856 114.593 104.173 115.812H111.469V122.625H104.173C103.856 123.845 103.369 125.013 102.725 126.096L107.064 130.436L102.248 135.252L97.9085 130.912C96.8257 131.556 95.6571 132.044 94.4375 132.36V139.656H87.625V132.36C86.4054 132.044 85.2368 131.556 84.154 130.912L79.8145 135.252L74.998 130.436L79.3376 126.096C78.6935 125.013 78.2061 123.845 77.8899 122.625H70.5938V115.812H77.8899C78.2061 114.593 78.6935 113.424 79.3376 112.342ZM91.0312 126.031C92.3786 126.031 93.6958 125.632 94.8161 124.883C95.9364 124.135 96.8096 123.071 97.3252 121.826C97.8408 120.581 97.9757 119.211 97.7129 117.89C97.45 116.568 96.8012 115.354 95.8484 114.402C94.8957 113.449 93.6818 112.8 92.3603 112.537C91.0388 112.274 89.669 112.409 88.4242 112.925C87.1794 113.44 86.1154 114.314 85.3669 115.434C84.6183 116.554 84.2188 117.871 84.2188 119.219C84.2188 121.026 84.9365 122.758 86.2141 124.036C87.4917 125.314 89.2245 126.031 91.0312 126.031Z" fill="#D93C3C"/>
<path id="Vector_4" d="M56.9688 115.812H63.7812V122.625H56.9688V115.812Z" fill="#D93C3C"/>
<path id="Vector_5" d="M104.656 85.1562H111.469V91.9688H104.656V85.1562Z" fill="#D93C3C"/>
<path id="Vector_6" d="M43.3438 95.375H50.1562V102.188H43.3438V95.375Z" fill="#D93C3C"/>
</g>
</svg>
