<svg width="218" height="218" viewBox="0 0 218 218" fill="none" xmlns="http://www.w3.org/2000/svg">
<path d="M115.812 54.5C125.244 54.5 134.464 57.2968 142.306 62.5368C150.148 67.7768 156.261 75.2245 159.87 83.9383C163.479 92.652 164.424 102.24 162.584 111.491C160.744 120.741 156.202 129.238 149.533 135.908C142.863 142.577 134.366 147.119 125.116 148.959C115.865 150.799 106.277 149.854 97.5633 146.245C88.8495 142.636 81.4017 136.523 76.1618 128.681C70.9218 120.839 68.125 111.619 68.125 102.188C68.1385 89.5441 73.167 77.4225 82.1073 68.4823C91.0475 59.5421 103.169 54.5135 115.812 54.5ZM105.594 88.5625C106.941 88.5625 108.258 88.163 109.379 87.4144C110.499 86.6658 111.372 85.6019 111.888 84.357C112.403 83.1122 112.538 81.7424 112.275 80.4209C112.012 79.0995 111.364 77.8856 110.411 76.9328C109.458 75.9801 108.244 75.3313 106.923 75.0684C105.601 74.8055 104.232 74.9404 102.987 75.4561C101.742 75.9717 100.678 76.8449 99.9293 77.9652C99.1808 79.0855 98.7812 80.4026 98.7812 81.75C98.7812 83.5568 99.499 85.2896 100.777 86.5672C102.054 87.8448 103.787 88.5625 105.594 88.5625ZM98.7165 70.0563C99.7993 69.4123 100.968 68.9249 102.187 68.6087V63.6969C99.8534 64.5224 97.5994 65.5588 95.4533 66.7932L98.7165 70.0563ZM115.812 143.063C121.49 143.098 127.113 141.95 132.322 139.693C137.531 137.435 142.213 134.117 146.069 129.95C149.925 125.782 152.871 120.858 154.718 115.489C156.566 110.12 157.275 104.426 156.8 98.7682C156.325 93.1105 154.676 87.6139 151.959 82.6286C149.242 77.6433 145.517 73.2786 141.02 69.8128C136.523 66.347 131.353 63.856 125.84 62.4986C120.327 61.1413 114.592 60.9473 109 61.929V68.6087C110.22 68.9249 111.388 69.4123 112.471 70.0563L116.811 65.7168L121.627 70.5332L117.287 74.8728C117.931 75.9556 118.419 77.1242 118.735 78.3438H126.031V85.1563H118.735C118.419 86.3758 117.931 87.5444 117.287 88.6272L121.627 92.9668L116.811 97.7832L112.471 93.4437C111.388 94.0878 110.22 94.5751 109 94.8913V102.188H102.187V94.8913C100.968 94.5751 99.7993 94.0878 98.7165 93.4437L94.3769 97.7832L89.5605 92.9668L93.9001 88.6272C93.256 87.5444 92.7686 86.3758 92.4524 85.1563H85.1562V78.3438H92.4524C92.7686 77.1242 93.256 75.9556 93.9001 74.8728L89.7513 70.724C83.2711 76.0852 78.6034 83.3157 76.3851 91.4283C74.1669 99.5409 74.5062 108.14 77.3569 116.053C80.2075 123.966 85.4306 130.806 92.313 135.64C99.1955 140.474 107.402 143.066 115.812 143.063Z" fill="#D93C3C"/>
<path d="M51.5263 144.626C51.256 144.148 51.1074 143.611 51.0937 143.063C51.0939 142.159 51.4529 141.293 52.0917 140.654L61.7314 131.015C56.2622 120.899 53.7594 109.445 54.5108 97.9697C55.2622 86.4946 59.2374 75.4647 65.9791 66.1485C72.7208 56.8324 81.9552 49.6083 92.6202 45.3073C103.285 41.0062 114.948 39.8029 126.266 41.8356C139.953 21.5991 153.932 4.8029 154.075 4.62918C154.405 4.2634 154.808 3.97098 155.259 3.77084C155.709 3.5707 156.196 3.46729 156.689 3.46729C157.182 3.46729 157.669 3.5707 158.12 3.77084C158.57 3.97098 158.973 4.2634 159.303 4.62918C161.562 7.33375 214.594 71.2077 214.594 102.188C214.604 111.12 212.545 119.934 208.578 127.937C204.612 135.941 198.845 142.917 191.731 148.319C184.617 153.721 176.349 157.401 167.574 159.073C158.799 160.744 149.757 160.36 141.155 157.951C132.611 161.872 123.274 163.76 113.878 163.468C104.481 163.176 95.2801 160.712 86.9956 156.269L77.3559 165.908C76.8528 166.433 76.1883 166.773 75.4689 166.875C74.7494 166.977 74.0165 166.834 73.3876 166.47L29.7876 210.07C28.3587 211.531 26.6544 212.693 24.7734 213.49C22.8923 214.287 20.8718 214.704 18.8288 214.715C16.7858 214.726 14.7608 214.332 12.8712 213.555C10.9815 212.779 9.26459 211.635 7.81984 210.19C6.37508 208.746 5.23114 207.029 4.45425 205.14C3.67735 203.25 3.28293 201.225 3.29378 199.182C3.30463 197.139 3.72055 195.119 4.51749 193.237C5.31441 191.356 6.4765 189.652 7.93652 188.223L51.5263 144.626ZM156.687 153.281C170.234 153.266 183.221 147.878 192.799 138.299C202.378 128.721 207.766 115.734 207.781 102.188C207.781 77.3458 167.458 25.5844 156.687 12.2013C152.259 17.6819 142.889 29.6311 133.396 43.4741C144.498 46.7911 154.433 53.1888 162.046 61.9248C169.659 70.6607 174.638 81.3766 176.406 92.8287C178.174 104.281 176.657 115.999 172.033 126.624C167.409 137.249 159.866 146.345 150.28 152.856C152.405 153.131 154.545 153.273 156.687 153.281ZM170.312 102.188C170.312 91.4085 167.116 80.8715 161.128 71.909C155.139 62.9465 146.627 55.9611 136.669 51.8362C126.71 47.7112 115.752 46.6319 105.18 48.7348C94.6081 50.8377 84.8971 56.0283 77.2751 63.6503C69.6532 71.2722 64.4626 80.9832 62.3597 91.5552C60.2568 102.127 61.336 113.085 65.461 123.044C69.586 133.002 76.5714 141.514 85.5339 147.503C94.4964 153.491 105.033 156.688 115.812 156.688C130.262 156.67 144.114 150.923 154.331 140.706C164.548 130.489 170.295 116.637 170.312 102.188ZM81.0142 152.6C74.9142 148.376 69.625 143.088 65.4 136.989L59.3164 143.063L74.9375 158.684L81.0142 152.6ZM18.8604 207.781C19.9949 207.784 21.1187 207.563 22.167 207.129C23.2153 206.695 24.1672 206.058 24.9678 205.254L68.4179 161.797L56.2031 149.582L12.7496 193.039C11.5411 194.247 10.7181 195.786 10.3848 197.462C10.0514 199.138 10.2227 200.875 10.8769 202.453C11.5312 204.031 12.639 205.38 14.0601 206.329C15.4812 207.277 17.1518 207.783 18.8604 207.781Z" fill="#D93C3C"/>
<path d="M114.338 112.342L109.998 108.002L114.814 103.186L119.154 107.525C120.237 106.881 121.405 106.394 122.625 106.077V98.7812H129.438V106.077C130.657 106.394 131.826 106.881 132.908 107.525L137.248 103.186L142.064 108.002L137.725 112.342C138.369 113.424 138.856 114.593 139.173 115.812H146.469V122.625H139.173C138.856 123.845 138.369 125.013 137.725 126.096L142.064 130.436L137.248 135.252L132.908 130.912C131.826 131.556 130.657 132.044 129.438 132.36V139.656H122.625V132.36C121.405 132.044 120.237 131.556 119.154 130.912L114.814 135.252L109.998 130.436L114.338 126.096C113.694 125.013 113.206 123.845 112.89 122.625H105.594V115.812H112.89C113.206 114.593 113.694 113.424 114.338 112.342ZM126.031 126.031C127.379 126.031 128.696 125.632 129.816 124.883C130.936 124.135 131.81 123.071 132.325 121.826C132.841 120.581 132.976 119.211 132.713 117.89C132.45 116.568 131.801 115.354 130.848 114.402C129.896 113.449 128.682 112.8 127.36 112.537C126.039 112.274 124.669 112.409 123.424 112.925C122.179 113.44 121.115 114.314 120.367 115.434C119.618 116.554 119.219 117.871 119.219 119.219C119.219 121.026 119.936 122.758 121.214 124.036C122.492 125.314 124.224 126.031 126.031 126.031Z" fill="#D93C3C"/>
<path d="M91.9688 115.812H98.7812V122.625H91.9688V115.812Z" fill="#D93C3C"/>
<path d="M139.656 85.1562H146.469V91.9688H139.656V85.1562Z" fill="#D93C3C"/>
<path d="M78.3438 95.375H85.1562V102.188H78.3438V95.375Z" fill="#D93C3C"/>
</svg>
