<svg width="26" height="26" viewBox="0 0 26 26" fill="none" xmlns="http://www.w3.org/2000/svg">
<path id="Union" fill-rule="evenodd" clip-rule="evenodd" d="M17.9814 10.7376C17.9814 15.0773 14.5623 18.4753 10.4909 18.4753C6.41956 18.4753 3.00049 15.0773 3.00049 10.7376C3.00049 6.39801 6.41956 3 10.4909 3C14.5623 3 17.9814 6.39801 17.9814 10.7376ZM17.1218 19.0586C15.3146 20.5692 13.0061 21.4753 10.4909 21.4753C4.69722 21.4753 0.000488281 16.6679 0.000488281 10.7376C0.000488281 4.8074 4.69722 0 10.4909 0C16.2847 0 20.9814 4.8074 20.9814 10.7376C20.9814 12.9982 20.2989 15.0956 19.1333 16.8258L25.9999 23.8541L23.9034 26L17.1218 19.0586Z" fill="#D93C3C"/>
</svg>
