<svg width="197" height="179" viewBox="0 0 197 179" fill="none" xmlns="http://www.w3.org/2000/svg">
<g id="injection_5147y86f3kn1 1">
<g id="Injection">
<path id="Vector" d="M158.748 76.2353C161.112 73.8671 162.439 70.658 162.439 67.3121C162.439 63.9664 161.112 60.7572 158.748 58.389L155.8 55.4405L164.047 47.198C164.318 46.9273 164.533 46.6059 164.679 46.2523C164.826 45.8986 164.901 45.5195 164.901 45.1367C164.901 44.7538 164.826 44.3748 164.679 44.0211C164.533 43.6674 164.318 43.346 164.047 43.0753L157.309 36.3362L175.897 17.7479C176.169 17.4777 176.386 17.1562 176.534 16.802C176.682 16.4478 176.758 16.0679 176.759 15.684C176.76 15.3001 176.685 14.9199 176.539 14.5651C176.392 14.2103 176.177 13.8879 175.905 13.6164C175.634 13.345 175.312 13.1299 174.957 12.9834C174.602 12.8369 174.222 12.7619 173.838 12.7628C173.454 12.7636 173.074 12.8403 172.72 12.9884C172.366 13.1364 172.044 13.353 171.774 13.6257L153.186 32.2131L146.451 25.4763C146.18 25.2056 145.859 24.9908 145.505 24.8443C145.151 24.6978 144.772 24.6224 144.389 24.6224C144.007 24.6224 143.628 24.6978 143.274 24.8443C142.92 24.9908 142.599 25.2056 142.328 25.4763L134.081 33.7227L131.137 30.7789C129.965 29.6061 128.574 28.6757 127.042 28.0409C125.511 27.406 123.869 27.0793 122.211 27.0793C120.553 27.0793 118.912 27.406 117.38 28.0409C115.849 28.6757 114.457 29.6061 113.286 30.7789C109.526 34.5378 104.427 39.6364 98.5162 45.5485C98.5073 45.557 98.4976 45.5644 98.4887 45.5733C98.4797 45.5823 98.4723 45.5916 98.4638 45.6005L65.1103 78.9536C47.5112 96.5527 30.2076 113.856 20.9762 123.086C18.6139 125.455 17.2874 128.664 17.2874 132.01C17.2874 135.356 18.6139 138.565 20.9762 140.935L23.4108 143.369C16.974 149.807 9.79489 156.985 6.35204 160.427L-2.94383 151.131C-3.49052 150.584 -4.23201 150.277 -5.00515 150.277C-5.77829 150.277 -6.51977 150.584 -7.06646 151.131C-7.61317 151.677 -7.9203 152.419 -7.9203 153.192C-7.9203 153.965 -7.61317 154.707 -7.06646 155.253L34.2735 196.59C34.8238 197.117 35.5586 197.408 36.3205 197.399C37.0824 197.391 37.8108 197.085 38.3498 196.547C38.8888 196.008 39.1955 195.28 39.2042 194.518C39.2129 193.756 38.923 193.021 38.3965 192.47L29.0967 183.169L46.1544 166.111L48.589 168.546C50.9585 170.908 54.1679 172.235 57.5137 172.235C60.8595 172.235 64.0689 170.908 66.4384 168.546C72.9704 162.016 83.5399 151.444 95.3975 139.59C95.4057 139.582 95.4143 139.576 95.422 139.568C95.4298 139.56 95.4364 139.551 95.4446 139.543L135.548 99.4366L158.748 76.2353ZM144.389 31.66L157.862 45.1357L151.678 51.3179L138.204 37.845L144.389 31.66ZM25.1 136.812C23.8282 135.537 23.114 133.81 23.114 132.009C23.114 130.208 23.8282 128.481 25.1 127.206C31.255 121.052 40.9967 111.309 52.0198 100.288L68.5683 116.835L58.0952 127.307L50.6327 119.844C50.3636 119.566 50.0418 119.344 49.6861 119.191C49.3304 119.039 48.9479 118.959 48.5608 118.955C48.1738 118.952 47.7899 119.026 47.4318 119.173C47.0736 119.32 46.7482 119.536 46.4746 119.81C46.2011 120.084 45.9848 120.409 45.8384 120.768C45.692 121.126 45.6184 121.51 45.622 121.897C45.6255 122.284 45.7061 122.667 45.859 123.022C46.012 123.378 46.2342 123.699 46.5127 123.968L53.9752 131.431L47.4168 137.989C47.2314 137.804 47.0468 137.619 46.8637 137.436L43.045 133.616C41.7325 132.307 39.9544 131.573 38.1009 131.574C36.2474 131.575 34.4701 132.312 33.1591 133.622L27.5358 139.247L25.1 136.812ZM51.7792 150.596C51.9969 150.814 52.1191 151.11 52.1191 151.419C52.1191 151.727 51.9969 152.023 51.7792 152.242L46.1544 157.866L40.9679 152.68L47.4144 146.234C49.0251 147.843 50.5487 149.367 51.7792 150.596ZM36.8457 148.557L31.6565 143.368L37.2755 137.748C37.4991 137.538 37.7936 137.422 38.0997 137.421C38.4059 137.42 38.701 137.535 38.9258 137.743L42.7387 141.557L43.2926 142.11L36.8457 148.557ZM27.5343 147.491L32.723 152.68L15.665 169.738L10.4755 164.548C13.9191 161.104 21.0994 153.926 27.5343 147.491ZM24.9741 179.047L19.7876 173.861L36.8457 156.803L42.0321 161.989L24.9741 179.047ZM62.3161 164.423C61.0411 165.694 59.314 166.408 57.5135 166.408C55.713 166.408 53.9859 165.694 52.7109 164.423L50.277 161.989L55.9023 156.363C57.213 155.051 57.9492 153.272 57.9492 151.417C57.9492 149.562 57.213 147.784 55.9023 146.471C54.6713 145.242 53.1481 143.719 51.5386 142.11L58.0952 135.552L65.5538 143.009C66.1005 143.556 66.842 143.863 67.6153 143.863C68.3885 143.863 69.1301 143.556 69.677 143.01C70.2238 142.463 70.5311 141.721 70.5312 140.948C70.5313 140.175 70.2243 139.433 69.6776 138.886L62.2205 131.429L72.6921 120.957L89.2383 137.503C78.2128 148.527 68.4727 158.267 62.3161 164.423ZM93.3597 133.381L74.7552 114.775L74.7529 114.772L74.7497 114.769L56.1432 96.1625C60.0727 92.2334 64.1227 88.183 68.1971 84.1086L74.2795 90.1925C74.5497 90.4651 74.8711 90.6817 75.2253 90.8298C75.5795 90.9779 75.9594 91.0545 76.3433 91.0554C76.7272 91.0563 77.1074 90.9813 77.4623 90.8348C77.8171 90.6883 78.1395 90.4732 78.4109 90.2017C78.6824 89.9303 78.8976 89.6079 79.0441 89.2531C79.1906 88.8983 79.2656 88.518 79.2648 88.1341C79.264 87.7503 79.1874 87.3703 79.0393 87.0161C78.8913 86.6619 78.6747 86.3405 78.4021 86.0702L72.3205 79.9887C76.3791 75.9302 80.4278 71.8818 84.3744 67.9348L90.456 74.016C90.7262 74.2886 91.0476 74.5052 91.4018 74.6533C91.756 74.8014 92.1359 74.878 92.5198 74.8789C92.9037 74.8797 93.284 74.8048 93.6388 74.6583C93.9936 74.5118 94.316 74.2966 94.5875 74.0252C94.8589 73.7538 95.0741 73.4314 95.2206 73.0766C95.3672 72.7218 95.4422 72.3415 95.4413 71.9576C95.4405 71.5737 95.3639 71.1938 95.2158 70.8396C95.0678 70.4854 94.8512 70.164 94.5786 69.8937L88.4963 63.811L100.553 51.7555L106.636 57.8394C106.907 58.1102 107.228 58.325 107.582 58.4716C107.936 58.6182 108.315 58.6937 108.698 58.6937C109.081 58.6938 109.46 58.6185 109.813 58.472C110.167 58.3256 110.489 58.1109 110.759 57.8402C111.03 57.5695 111.245 57.2482 111.392 56.8945C111.538 56.5408 111.614 56.1617 111.614 55.7789C111.614 55.396 111.538 55.0169 111.392 54.6631C111.246 54.3094 111.031 53.988 110.76 53.7172L104.676 47.6329L117.41 34.8992C118.041 34.2681 118.789 33.7675 119.613 33.4259C120.437 33.0843 121.321 32.9084 122.213 32.9084C123.105 32.9084 123.988 33.0843 124.812 33.4259C125.636 33.7675 126.384 34.2681 127.015 34.8992C133.451 41.336 147.26 55.1452 154.626 62.5105C155.897 63.7847 156.61 65.5109 156.61 67.3106C156.61 69.1103 155.897 70.8365 154.626 72.1107L131.425 95.3117C119.589 107.15 105.863 120.877 93.3597 133.381Z" fill="#D93C3C"/>
<path id="Vector_2" d="M86.287 93.9563C86.0168 93.6837 85.6953 93.4671 85.3412 93.319C84.987 93.1709 84.6071 93.0942 84.2232 93.0934C83.8393 93.0925 83.459 93.1675 83.1042 93.314C82.7494 93.4605 82.427 93.6756 82.1555 93.9471C81.8841 94.2185 81.6689 94.5409 81.5224 94.8957C81.3758 95.2505 81.3008 95.6308 81.3016 96.0146C81.3025 96.3985 81.3791 96.7785 81.5271 97.1327C81.6752 97.4868 81.8918 97.8083 82.1644 98.0786L84.8695 100.784C85.1397 101.056 85.4611 101.273 85.8152 101.421C86.1693 101.569 86.5492 101.646 86.9331 101.647C87.317 101.648 87.6973 101.573 88.0521 101.427C88.407 101.281 88.7295 101.065 89.001 100.794C89.2725 100.523 89.4878 100.2 89.6344 99.8457C89.7811 99.4909 89.8562 99.1107 89.8555 98.7268C89.8548 98.3429 89.7782 97.9629 89.6303 97.6087C89.4823 97.2545 89.2659 96.933 88.9933 96.6626L86.287 93.9563Z" fill="#D93C3C"/>
<path id="Vector_3" d="M102.467 77.7798C102.197 77.5072 101.876 77.2906 101.521 77.1425C101.167 76.9944 100.787 76.9178 100.403 76.9169C100.02 76.916 99.6393 76.991 99.2844 77.1375C98.9296 77.284 98.6072 77.4992 98.3357 77.7706C98.0643 78.042 97.8491 78.3644 97.7026 78.7192C97.556 79.074 97.481 79.4543 97.4819 79.8382C97.4827 80.2221 97.5593 80.602 97.7074 80.9562C97.8554 81.3104 98.072 81.6318 98.3446 81.9021L101.046 84.6034C101.316 84.876 101.638 85.0926 101.992 85.2407C102.346 85.3888 102.726 85.4654 103.11 85.4663C103.494 85.4672 103.874 85.3922 104.229 85.2457C104.584 85.0992 104.906 84.884 105.177 84.6126C105.449 84.3412 105.664 84.0188 105.811 83.664C105.957 83.3092 106.032 82.9289 106.031 82.545C106.03 82.1611 105.954 81.7812 105.806 81.427C105.658 81.0728 105.441 80.7514 105.169 80.4811L102.467 77.7798Z" fill="#D93C3C"/>
<path id="Vector_4" d="M118.644 61.6046C118.376 61.323 118.054 61.098 117.698 60.9426C117.342 60.7872 116.958 60.7047 116.569 60.6999C116.18 60.695 115.795 60.768 115.434 60.9145C115.074 61.0609 114.747 61.278 114.472 61.5527C114.197 61.8275 113.98 62.1546 113.833 62.5145C113.687 62.8745 113.613 63.2602 113.618 63.649C113.623 64.0377 113.705 64.4215 113.86 64.778C114.015 65.1344 114.24 65.4562 114.521 65.7245L117.223 68.4258C117.493 68.6965 117.815 68.9112 118.168 69.0578C118.522 69.2043 118.901 69.2797 119.284 69.2798C119.667 69.2798 120.046 69.2045 120.399 69.058C120.753 68.9115 121.074 68.6968 121.345 68.4261C121.616 68.1555 121.831 67.8341 121.977 67.4805C122.124 67.1268 122.199 66.7477 122.199 66.3649C122.199 65.9821 122.124 65.603 121.977 65.2493C121.831 64.8956 121.616 64.5742 121.346 64.3035L118.644 61.6046Z" fill="#D93C3C"/>
</g>
<path id="Vector_5" d="M196.5 41.7913L196.5 41.7908C196.5 40.1349 195.831 37.9417 194.86 35.607C193.882 33.2552 192.569 30.6973 191.225 28.2895C188.537 23.473 185.706 19.2214 185.125 18.3584L185.125 18.3582C184.947 18.093 184.704 17.8765 184.421 17.7271C184.137 17.5778 183.821 17.5 183.5 17.5C183.18 17.5 182.864 17.5778 182.58 17.7271C182.297 17.8765 182.054 18.093 181.876 18.3582C181.295 19.2215 178.463 23.4731 175.775 28.2895C174.431 30.6973 173.118 33.2552 172.14 35.607C171.169 37.9417 170.5 40.1349 170.5 41.7908L170.5 41.7913C170.504 45.1644 171.877 48.396 174.316 50.7775C176.754 53.1587 180.057 54.4962 183.5 54.5L183.501 54.5C186.944 54.496 190.247 53.1584 192.685 50.7773C195.123 48.3957 196.496 45.1643 196.5 41.7913ZM183.5 22.9601C185.193 25.6195 187.366 29.2219 189.168 32.6711C190.146 34.5426 191.01 36.3607 191.629 37.9537C192.253 39.5624 192.604 40.8864 192.604 41.7908C192.604 44.1419 191.648 46.3991 189.942 48.0653C188.236 49.7318 185.919 50.6702 183.5 50.6702C181.082 50.6702 178.765 49.7318 177.059 48.0653C175.353 46.3991 174.396 44.1419 174.396 41.7908L174.396 41.7907C174.396 40.8861 174.748 39.562 175.372 37.9532C175.99 36.3602 176.854 34.5421 177.832 32.6705C179.634 29.2213 181.808 25.6192 183.5 22.9601Z" fill="#D93C3C" stroke="#D93C3C"/>
<path id="Vector_6" d="M185.114 48.0598C185.242 48.1787 185.385 48.2765 185.539 48.3493L185.484 48.5008L186.199 48.5C186.478 48.4997 186.75 48.422 186.99 48.2791L186.991 48.2788C187.961 47.7009 188.778 46.8432 189.37 45.7974C189.962 44.7517 190.311 43.5489 190.389 42.3059L190.389 42.3045C190.418 41.8277 190.445 41.3868 190.464 41.0652L190.488 40.6826L190.494 40.5779L190.496 40.5506L190.496 40.5436L190.496 40.5419L190.496 40.5414L190.496 40.5413L190.496 40.5413L189.997 40.5108L190.496 40.5413L190.496 40.54C190.525 40.0586 190.391 39.5733 190.109 39.1904C189.826 38.8055 189.406 38.546 188.93 38.5055C188.452 38.4648 187.997 38.6517 187.661 38.9926C187.329 39.3306 187.137 39.7942 187.106 40.2754L187.106 40.2768L187.605 40.3072L187.106 40.2768L187.106 40.2768L187.106 40.2769L187.106 40.2773L187.106 40.2791L187.106 40.2861L187.104 40.3135L187.098 40.4185L187.074 40.8019C187.055 41.1239 187.028 41.5652 186.999 42.0424C186.961 42.6527 186.79 43.2363 186.507 43.7367C186.224 44.2369 185.841 44.6324 185.404 44.8932C185.058 45.0987 184.797 45.4254 184.647 45.805C184.497 46.1847 184.461 46.6081 184.542 47.0103C184.623 47.4124 184.819 47.7847 185.114 48.0598Z" fill="#D93C3C" stroke="#D93C3C"/>
</g>
</svg>
