<svg width="207" height="199" viewBox="0 0 207 199" fill="none" xmlns="http://www.w3.org/2000/svg">
<path d="M168.748 76.2353C171.112 73.8671 172.439 70.658 172.439 67.3121C172.439 63.9664 171.112 60.7572 168.748 58.389L165.8 55.4405L174.047 47.198C174.318 46.9273 174.533 46.6059 174.679 46.2523C174.826 45.8986 174.901 45.5195 174.901 45.1367C174.901 44.7538 174.826 44.3748 174.679 44.0211C174.533 43.6674 174.318 43.346 174.047 43.0753L167.309 36.3362L185.897 17.7479C186.169 17.4777 186.386 17.1562 186.534 16.802C186.682 16.4478 186.758 16.0679 186.759 15.684C186.76 15.3001 186.685 14.9199 186.539 14.5651C186.392 14.2103 186.177 13.8879 185.905 13.6164C185.634 13.345 185.312 13.1299 184.957 12.9834C184.602 12.8369 184.222 12.7619 183.838 12.7628C183.454 12.7636 183.074 12.8403 182.72 12.9884C182.366 13.1364 182.044 13.353 181.774 13.6257L163.186 32.2131L156.451 25.4763C156.18 25.2056 155.859 24.9908 155.505 24.8443C155.151 24.6978 154.772 24.6224 154.389 24.6224C154.007 24.6224 153.628 24.6978 153.274 24.8443C152.92 24.9908 152.599 25.2056 152.328 25.4763L144.081 33.7227L141.137 30.7789C139.965 29.6061 138.574 28.6757 137.042 28.0409C135.511 27.406 133.869 27.0793 132.211 27.0793C130.553 27.0793 128.912 27.406 127.38 28.0409C125.849 28.6757 124.457 29.6061 123.286 30.7789C119.526 34.5378 114.427 39.6364 108.516 45.5485C108.507 45.557 108.498 45.5644 108.489 45.5733C108.48 45.5823 108.472 45.5916 108.464 45.6005L75.1103 78.9536C57.5112 96.5527 40.2076 113.856 30.9762 123.086C28.6139 125.455 27.2874 128.664 27.2874 132.01C27.2874 135.356 28.6139 138.565 30.9762 140.935L33.4108 143.369C26.974 149.807 19.7949 156.985 16.352 160.427L7.05617 151.131C6.50948 150.584 5.76799 150.277 4.99485 150.277C4.22171 150.277 3.48023 150.584 2.93354 151.131C2.38683 151.677 2.0797 152.419 2.0797 153.192C2.0797 153.965 2.38683 154.707 2.93354 155.253L44.2735 196.59C44.8238 197.117 45.5586 197.408 46.3205 197.399C47.0824 197.391 47.8108 197.085 48.3498 196.547C48.8888 196.008 49.1955 195.28 49.2042 194.518C49.2129 193.756 48.923 193.021 48.3965 192.47L39.0967 183.169L56.1544 166.111L58.589 168.546C60.9585 170.908 64.1679 172.235 67.5137 172.235C70.8595 172.235 74.0689 170.908 76.4384 168.546C82.9704 162.016 93.5399 151.444 105.398 139.59C105.406 139.582 105.414 139.576 105.422 139.568C105.43 139.56 105.436 139.551 105.445 139.543L145.548 99.4366L168.748 76.2353ZM154.389 31.66L167.862 45.1357L161.678 51.3179L148.204 37.845L154.389 31.66ZM35.1 136.812C33.8282 135.537 33.114 133.81 33.114 132.009C33.114 130.208 33.8282 128.481 35.1 127.206C41.255 121.052 50.9967 111.309 62.0198 100.288L78.5683 116.835L68.0952 127.307L60.6327 119.844C60.3636 119.566 60.0418 119.344 59.6861 119.191C59.3304 119.039 58.9479 118.959 58.5608 118.955C58.1738 118.952 57.7899 119.026 57.4318 119.173C57.0736 119.32 56.7482 119.536 56.4746 119.81C56.2011 120.084 55.9848 120.409 55.8384 120.768C55.692 121.126 55.6184 121.51 55.622 121.897C55.6255 122.284 55.7061 122.667 55.859 123.022C56.012 123.378 56.2342 123.699 56.5127 123.968L63.9752 131.431L57.4168 137.989C57.2314 137.804 57.0468 137.619 56.8637 137.436L53.045 133.616C51.7325 132.307 49.9544 131.573 48.1009 131.574C46.2474 131.575 44.4701 132.312 43.1591 133.622L37.5358 139.247L35.1 136.812ZM61.7792 150.596C61.9969 150.814 62.1191 151.11 62.1191 151.419C62.1191 151.727 61.9969 152.023 61.7792 152.242L56.1544 157.866L50.9679 152.68L57.4144 146.234C59.0251 147.843 60.5487 149.367 61.7792 150.596ZM46.8457 148.557L41.6565 143.368L47.2755 137.748C47.4991 137.538 47.7936 137.422 48.0997 137.421C48.4059 137.42 48.701 137.535 48.9258 137.743L52.7387 141.557L53.2926 142.11L46.8457 148.557ZM37.5343 147.491L42.723 152.68L25.665 169.738L20.4755 164.548C23.9191 161.104 31.0994 153.926 37.5343 147.491ZM34.9741 179.047L29.7876 173.861L46.8457 156.803L52.0321 161.989L34.9741 179.047ZM72.3161 164.423C71.0411 165.694 69.314 166.408 67.5135 166.408C65.713 166.408 63.9859 165.694 62.7109 164.423L60.277 161.989L65.9023 156.363C67.213 155.051 67.9492 153.272 67.9492 151.417C67.9492 149.562 67.213 147.784 65.9023 146.471C64.6713 145.242 63.1481 143.719 61.5386 142.11L68.0952 135.552L75.5538 143.009C76.1005 143.556 76.842 143.863 77.6153 143.863C78.3885 143.863 79.1301 143.556 79.677 143.01C80.2238 142.463 80.5311 141.721 80.5312 140.948C80.5313 140.175 80.2243 139.433 79.6776 138.886L72.2205 131.429L82.6921 120.957L99.2383 137.503C88.2128 148.527 78.4727 158.267 72.3161 164.423ZM103.36 133.381L84.7552 114.775L84.7529 114.772L84.7497 114.769L66.1432 96.1625C70.0727 92.2334 74.1227 88.183 78.1971 84.1086L84.2795 90.1925C84.5497 90.4651 84.8711 90.6817 85.2253 90.8298C85.5795 90.9779 85.9594 91.0545 86.3433 91.0554C86.7272 91.0563 87.1074 90.9813 87.4623 90.8348C87.8171 90.6883 88.1395 90.4732 88.4109 90.2017C88.6824 89.9303 88.8976 89.6079 89.0441 89.2531C89.1906 88.8983 89.2656 88.518 89.2648 88.1341C89.264 87.7503 89.1874 87.3703 89.0393 87.0161C88.8913 86.6619 88.6747 86.3405 88.4021 86.0702L82.3205 79.9887C86.3791 75.9302 90.4278 71.8818 94.3744 67.9348L100.456 74.016C100.726 74.2886 101.048 74.5052 101.402 74.6533C101.756 74.8014 102.136 74.878 102.52 74.8789C102.904 74.8797 103.284 74.8048 103.639 74.6583C103.994 74.5118 104.316 74.2966 104.587 74.0252C104.859 73.7538 105.074 73.4314 105.221 73.0766C105.367 72.7218 105.442 72.3415 105.441 71.9576C105.441 71.5737 105.364 71.1938 105.216 70.8396C105.068 70.4854 104.851 70.164 104.579 69.8937L98.4963 63.811L110.553 51.7555L116.636 57.8394C116.907 58.1102 117.228 58.325 117.582 58.4716C117.936 58.6182 118.315 58.6937 118.698 58.6937C119.081 58.6938 119.46 58.6185 119.813 58.472C120.167 58.3256 120.489 58.1109 120.759 57.8402C121.03 57.5695 121.245 57.2482 121.392 56.8945C121.538 56.5408 121.614 56.1617 121.614 55.7789C121.614 55.396 121.538 55.0169 121.392 54.6631C121.246 54.3094 121.031 53.988 120.76 53.7172L114.676 47.6329L127.41 34.8992C128.041 34.2681 128.789 33.7675 129.613 33.4259C130.437 33.0843 131.321 32.9084 132.213 32.9084C133.105 32.9084 133.988 33.0843 134.812 33.4259C135.636 33.7675 136.384 34.2681 137.015 34.8992C143.451 41.336 157.26 55.1452 164.626 62.5105C165.897 63.7847 166.61 65.5109 166.61 67.3106C166.61 69.1103 165.897 70.8365 164.626 72.1107L141.425 95.3117C129.589 107.15 115.863 120.877 103.36 133.381Z" fill="#D93C3C"/>
<path d="M96.287 93.9563C96.0168 93.6837 95.6953 93.4671 95.3412 93.319C94.987 93.1709 94.6071 93.0942 94.2232 93.0934C93.8393 93.0925 93.459 93.1675 93.1042 93.314C92.7494 93.4605 92.427 93.6756 92.1555 93.9471C91.8841 94.2185 91.6689 94.5409 91.5224 94.8957C91.3758 95.2505 91.3008 95.6308 91.3016 96.0146C91.3025 96.3985 91.3791 96.7785 91.5271 97.1327C91.6752 97.4868 91.8918 97.8083 92.1644 98.0786L94.8695 100.784C95.1397 101.056 95.4611 101.273 95.8152 101.421C96.1693 101.569 96.5492 101.646 96.9331 101.647C97.317 101.648 97.6973 101.573 98.0521 101.427C98.407 101.281 98.7295 101.065 99.001 100.794C99.2725 100.523 99.4878 100.2 99.6344 99.8457C99.7811 99.4909 99.8562 99.1107 99.8555 98.7268C99.8548 98.3429 99.7782 97.9629 99.6303 97.6087C99.4823 97.2545 99.2659 96.933 98.9933 96.6626L96.287 93.9563Z" fill="#D93C3C"/>
<path d="M112.467 77.7798C112.197 77.5072 111.876 77.2906 111.521 77.1425C111.167 76.9944 110.787 76.9178 110.403 76.9169C110.02 76.916 109.639 76.991 109.284 77.1375C108.93 77.284 108.607 77.4992 108.336 77.7706C108.064 78.042 107.849 78.3644 107.703 78.7192C107.556 79.074 107.481 79.4543 107.482 79.8382C107.483 80.2221 107.559 80.602 107.707 80.9562C107.855 81.3104 108.072 81.6318 108.345 81.9021L111.046 84.6034C111.316 84.876 111.638 85.0926 111.992 85.2407C112.346 85.3888 112.726 85.4654 113.11 85.4663C113.494 85.4672 113.874 85.3922 114.229 85.2457C114.584 85.0992 114.906 84.884 115.177 84.6126C115.449 84.3412 115.664 84.0188 115.811 83.664C115.957 83.3092 116.032 82.9289 116.031 82.545C116.03 82.1611 115.954 81.7812 115.806 81.427C115.658 81.0728 115.441 80.7514 115.169 80.4811L112.467 77.7798Z" fill="#D93C3C"/>
<path d="M128.644 61.6046C128.376 61.323 128.054 61.098 127.698 60.9426C127.342 60.7872 126.958 60.7047 126.569 60.6999C126.18 60.695 125.795 60.768 125.434 60.9145C125.074 61.0609 124.747 61.278 124.472 61.5527C124.197 61.8275 123.98 62.1546 123.833 62.5145C123.687 62.8745 123.613 63.2602 123.618 63.649C123.623 64.0377 123.705 64.4215 123.86 64.778C124.015 65.1344 124.24 65.4562 124.521 65.7245L127.223 68.4258C127.493 68.6965 127.815 68.9112 128.168 69.0578C128.522 69.2043 128.901 69.2797 129.284 69.2798C129.667 69.2798 130.046 69.2045 130.399 69.058C130.753 68.9115 131.074 68.6968 131.345 68.4261C131.616 68.1555 131.831 67.8341 131.977 67.4805C132.124 67.1268 132.199 66.7477 132.199 66.3649C132.199 65.9821 132.124 65.603 131.977 65.2493C131.831 64.8956 131.616 64.5742 131.346 64.3035L128.644 61.6046Z" fill="#D93C3C"/>
<path d="M193.5 17.5C193.821 17.5 194.137 17.5782 194.421 17.7275L194.625 17.8516C194.756 17.9425 194.875 18.049 194.979 18.1689L195.125 18.3584L195.945 19.5967C197.112 21.3822 199.209 24.6768 201.225 28.2891C202.568 30.6968 203.882 33.2557 204.86 35.6074C205.832 37.942 206.5 40.1352 206.5 41.791L206.496 42.1074C206.413 45.2606 205.133 48.27 202.91 50.5518L202.685 50.7773C200.247 53.1585 196.944 54.496 193.501 54.5L193.5 54.5C190.165 54.4963 186.96 53.2412 184.547 50.998L184.315 50.7773C181.877 48.3958 180.504 45.164 180.5 41.791L180.508 41.4736C180.585 39.8599 181.229 37.7958 182.14 35.6074C183.118 33.2557 184.432 30.6968 185.775 28.2891C188.463 23.4729 191.295 19.2218 191.876 18.3584L192.021 18.1689C192.178 17.9892 192.368 17.8395 192.58 17.7275L192.799 17.6289C193.022 17.5442 193.26 17.5001 193.5 17.5ZM193.5 22.9619C191.807 25.6209 189.634 29.2223 187.832 32.6709C186.854 34.5423 185.99 36.3602 185.372 37.9531C184.748 39.5619 184.396 40.8865 184.396 41.791L184.407 42.2305C184.519 44.4218 185.459 46.5034 187.059 48.0654L187.386 48.3691C189.055 49.8453 191.233 50.6698 193.5 50.6699C195.918 50.6699 198.236 49.732 199.942 48.0654L200.253 47.7461C201.764 46.1167 202.604 43.9951 202.604 41.791C202.604 40.8867 202.253 39.5625 201.629 37.9541C201.011 36.3611 200.146 34.5425 199.168 32.6709C197.366 29.2223 195.192 25.6212 193.5 22.9619Z" fill="#D93C3C" stroke="#D93C3C"/>
<path d="M198.93 38.5059L199.105 38.5303C199.509 38.6123 199.861 38.8536 200.109 39.1904L200.208 39.3389C200.422 39.6948 200.521 40.1189 200.496 40.54L200.496 40.5508C200.496 40.5569 200.495 40.5662 200.494 40.5781C200.493 40.6021 200.49 40.6374 200.487 40.6826C200.482 40.7734 200.474 40.9046 200.464 41.0654C200.444 41.387 200.418 41.8279 200.39 42.3047L200.39 42.3057C200.321 43.3935 200.045 44.4506 199.58 45.3984L199.37 45.7969C198.778 46.8425 197.961 47.7004 196.991 48.2783L196.99 48.2793C196.81 48.3865 196.612 48.4567 196.406 48.4854L196.199 48.5L195.484 48.501L195.539 48.3477C195.43 48.2961 195.326 48.2334 195.229 48.1582L195.114 48.0596C194.819 47.7846 194.623 47.4126 194.542 47.0107C194.461 46.6085 194.497 46.1845 194.647 45.8047C194.779 45.4725 194.995 45.1809 195.279 44.9756L195.405 44.8926C195.842 44.6317 196.224 44.2362 196.507 43.7363L196.607 43.5449C196.83 43.0899 196.965 42.5766 196.999 42.043L197.074 40.8018C197.084 40.641 197.092 40.5099 197.098 40.4189C197.1 40.3734 197.103 40.3375 197.104 40.3135C197.105 40.3015 197.105 40.2923 197.105 40.2861C197.106 40.2832 197.106 40.2809 197.106 40.2793L197.106 40.2754L197.126 40.0957C197.188 39.6801 197.37 39.2879 197.661 38.9922C197.996 38.6513 198.452 38.4652 198.93 38.5059Z" fill="#D93C3C" stroke="#D93C3C"/>
</svg>
