<svg width="23" height="29" viewBox="0 0 23 29" fill="none" xmlns="http://www.w3.org/2000/svg">
<path d="M0 14.5C0 14.8846 0.151451 15.2534 0.421034 15.5253C0.690618 15.7972 1.05625 15.95 1.4375 15.95H12.3481L9.04187 19.2705C8.90714 19.4053 8.8002 19.5657 8.72722 19.7424C8.65424 19.9191 8.61666 20.1086 8.61666 20.3C8.61666 20.4914 8.65424 20.6809 8.72722 20.8576C8.8002 21.0343 8.90714 21.1947 9.04187 21.3295C9.17551 21.4654 9.3345 21.5733 9.50967 21.6469C9.68484 21.7205 9.87273 21.7584 10.0625 21.7584C10.2523 21.7584 10.4402 21.7205 10.6153 21.6469C10.7905 21.5733 10.9495 21.4654 11.0831 21.3295L16.8331 15.5295C16.964 15.3916 17.0666 15.229 17.135 15.051C17.2788 14.698 17.2788 14.302 17.135 13.949C17.0666 13.771 16.964 13.6084 16.8331 13.4705L11.0831 7.6705C10.9491 7.5353 10.79 7.42806 10.6149 7.35489C10.4397 7.28173 10.252 7.24407 10.0625 7.24407C9.87295 7.24407 9.68526 7.28173 9.51014 7.35489C9.33502 7.42806 9.17591 7.5353 9.04187 7.6705C8.90784 7.8057 8.80153 7.9662 8.72899 8.14284C8.65645 8.31948 8.61912 8.5088 8.61912 8.7C8.61912 8.8912 8.65645 9.08052 8.72899 9.25716C8.80153 9.4338 8.90784 9.5943 9.04187 9.7295L12.3481 13.05H1.4375C1.05625 13.05 0.690618 13.2028 0.421034 13.4747C0.151451 13.7466 0 14.1154 0 14.5ZM18.6875 0H4.3125C3.16875 0 2.07185 0.458302 1.2631 1.27409C0.454352 2.08987 0 3.19631 0 4.35V8.7C0 9.08456 0.151451 9.45338 0.421034 9.7253C0.690618 9.99723 1.05625 10.15 1.4375 10.15C1.81875 10.15 2.18438 9.99723 2.45397 9.7253C2.72355 9.45338 2.875 9.08456 2.875 8.7V4.35C2.875 3.96544 3.02645 3.59662 3.29603 3.3247C3.56562 3.05277 3.93125 2.9 4.3125 2.9H18.6875C19.0687 2.9 19.4344 3.05277 19.704 3.3247C19.9736 3.59662 20.125 3.96544 20.125 4.35V24.65C20.125 25.0346 19.9736 25.4034 19.704 25.6753C19.4344 25.9472 19.0687 26.1 18.6875 26.1H4.3125C3.93125 26.1 3.56562 25.9472 3.29603 25.6753C3.02645 25.4034 2.875 25.0346 2.875 24.65V20.3C2.875 19.9154 2.72355 19.5466 2.45397 19.2747C2.18438 19.0028 1.81875 18.85 1.4375 18.85C1.05625 18.85 0.690618 19.0028 0.421034 19.2747C0.151451 19.5466 0 19.9154 0 20.3V24.65C0 25.8037 0.454352 26.9101 1.2631 27.7259C2.07185 28.5417 3.16875 29 4.3125 29H18.6875C19.8312 29 20.9281 28.5417 21.7369 27.7259C22.5456 26.9101 23 25.8037 23 24.65V4.35C23 3.19631 22.5456 2.08987 21.7369 1.27409C20.9281 0.458302 19.8312 0 18.6875 0Z" fill="#D93C3C"/>
</svg>
