<svg width="34" height="34" viewBox="0 0 34 34" fill="none" xmlns="http://www.w3.org/2000/svg">
<path d="M14.62 20.06L10.965 16.405C10.6533 16.0933 10.2567 15.9375 9.775 15.9375C9.29333 15.9375 8.89667 16.0933 8.585 16.405C8.27333 16.7167 8.1175 17.1133 8.1175 17.595C8.1175 18.0767 8.27333 18.4733 8.585 18.785L13.43 23.63C13.77 23.97 14.1667 24.14 14.62 24.14C15.0733 24.14 15.47 23.97 15.81 23.63L25.415 14.025C25.7267 13.7133 25.8825 13.3167 25.8825 12.835C25.8825 12.3533 25.7267 11.9567 25.415 11.645C25.1033 11.3333 24.7067 11.1775 24.225 11.1775C23.7433 11.1775 23.3467 11.3333 23.035 11.645L14.62 20.06ZM17 34C14.6483 34 12.4383 33.5535 10.37 32.6604C8.30167 31.7673 6.5025 30.5564 4.9725 29.0275C3.4425 27.4975 2.23153 25.6983 1.3396 23.63C0.447667 21.5617 0.00113333 19.3517 0 17C0 14.6483 0.446534 12.4383 1.3396 10.37C2.23267 8.30167 3.44363 6.5025 4.9725 4.9725C6.5025 3.4425 8.30167 2.23153 10.37 1.3396C12.4383 0.447667 14.6483 0.00113333 17 0C19.3517 0 21.5617 0.446534 23.63 1.3396C25.6983 2.23267 27.4975 3.44363 29.0275 4.9725C30.5575 6.5025 31.769 8.30167 32.6621 10.37C33.5552 12.4383 34.0011 14.6483 34 17C34 19.3517 33.5535 21.5617 32.6604 23.63C31.7673 25.6983 30.5564 27.4975 29.0275 29.0275C27.4975 30.5575 25.6983 31.769 23.63 32.6621C21.5617 33.5552 19.3517 34.0011 17 34ZM17 30.6C20.7967 30.6 24.0125 29.2825 26.6475 26.6475C29.2825 24.0125 30.6 20.7967 30.6 17C30.6 13.2033 29.2825 9.9875 26.6475 7.3525C24.0125 4.7175 20.7967 3.4 17 3.4C13.2033 3.4 9.9875 4.7175 7.3525 7.3525C4.7175 9.9875 3.4 13.2033 3.4 17C3.4 20.7967 4.7175 24.0125 7.3525 26.6475C9.9875 29.2825 13.2033 30.6 17 30.6Z" fill="#65D93C"/>
</svg>
