<svg width="21" height="21" viewBox="0 0 21 21" fill="none" xmlns="http://www.w3.org/2000/svg">
<path d="M1 3.63889C1 12.6749 8.32512 20 17.3611 20C17.7688 20 18.1729 19.9851 18.5732 19.9558C19.0325 19.9221 19.2621 19.9053 19.4712 19.785C19.6443 19.6853 19.8084 19.5086 19.8952 19.3287C20 19.1114 20 18.858 20 18.3512V15.3774C20 14.9512 20 14.7381 19.9298 14.5554C19.868 14.3941 19.7672 14.2504 19.6368 14.137C19.4891 14.0087 19.2888 13.9358 18.8883 13.7902L15.5033 12.5593C15.0373 12.3899 14.8042 12.3051 14.5832 12.3195C14.3882 12.3321 14.2007 12.3987 14.0413 12.5117C13.8606 12.6397 13.7331 12.8523 13.4779 13.2776L12.6111 14.7222C9.81399 13.4555 7.54645 11.185 6.27778 8.38889L7.72244 7.52209C8.14764 7.26697 8.36024 7.13941 8.48832 6.95867C8.60127 6.79931 8.66787 6.61172 8.68054 6.41679C8.6949 6.19573 8.61013 5.96273 8.44072 5.49672L7.20982 2.11172C7.06417 1.71119 6.99134 1.51092 6.863 1.36322C6.74962 1.23274 6.60594 1.1321 6.44458 1.07014C6.2619 1 6.04881 1 5.62262 1H2.64879C2.14198 1 1.88858 1 1.67131 1.10476C1.49136 1.19154 1.3147 1.35573 1.21502 1.52886C1.09466 1.73791 1.07785 1.96754 1.04422 2.42683C1.01491 2.82702 1 3.23121 1 3.63889Z" stroke="#FDFDFD" stroke-width="2" stroke-linecap="round" stroke-linejoin="round"/>
</svg>
