<svg width="20" height="17" viewBox="0 0 20 17" fill="none" xmlns="http://www.w3.org/2000/svg">
<path d="M1 4.21429L6.44992 8.10711C7.73295 9.0235 8.3745 9.48175 9.0678 9.65982C9.6806 9.81711 10.3194 9.81711 10.9322 9.65982C11.6255 9.48175 12.2671 9.0235 13.5501 8.10711L19 4.21429M4.2 16H15.8C16.9201 16 17.4802 16 17.908 15.7664C18.2843 15.561 18.5903 15.2332 18.782 14.83C19 14.3716 19 13.7715 19 12.5714V4.42857C19 3.22846 19 2.6284 18.782 2.17002C18.5903 1.76681 18.2843 1.439 17.908 1.23356C17.4802 1 16.9201 1 15.8 1H4.2C3.0799 1 2.51984 1 2.09202 1.23356C1.71569 1.439 1.40973 1.76681 1.21799 2.17002C1 2.6284 1 3.22845 1 4.42857V12.5714C1 13.7715 1 14.3716 1.21799 14.83C1.40973 15.2332 1.71569 15.561 2.09202 15.7664C2.51984 16 3.07989 16 4.2 16Z" stroke="#FDFDFD" stroke-width="2" stroke-linecap="round" stroke-linejoin="round"/>
</svg>
