<svg width="18" height="21" viewBox="0 0 18 21" fill="none" xmlns="http://www.w3.org/2000/svg">
<path fill-rule="evenodd" clip-rule="evenodd" d="M9.00296 12.2562C11.3594 12.2562 13.2696 10.4924 13.2696 8.31668C13.2696 6.14097 11.3594 4.3772 9.00296 4.3772C6.64656 4.3772 4.73633 6.14097 4.73633 8.31668C4.73633 10.4924 6.64656 12.2562 9.00296 12.2562ZM9.00296 10.5085C7.69197 10.5085 6.6292 9.52718 6.6292 8.31668C6.6292 7.10621 7.69197 6.12494 9.00296 6.12494C10.3139 6.12494 11.3767 7.10621 11.3767 8.31668C11.3767 9.52718 10.3139 10.5085 9.00296 10.5085Z" fill="#FDFDFD"/>
<path fill-rule="evenodd" clip-rule="evenodd" d="M17.7909 10.1361C19.0167 5.06409 14.6935 0 8.99975 0C3.3076 0 -1.016 5.07104 0.208775 10.1367C1.15413 14.2509 4.977 18.2468 7.25859 20.3307C8.23574 21.2231 9.76376 21.2231 10.7409 20.3307C13.0226 18.2467 16.8458 14.2505 17.7909 10.1361ZM8.99975 1.75088C13.4678 1.75088 16.9042 5.76589 15.9401 9.75474C15.477 11.6713 14.4382 13.3925 13.2191 14.9836C11.945 16.6464 10.5006 18.0874 9.40736 19.0859C9.16909 19.3035 8.83042 19.3035 8.59215 19.0859C7.49895 18.0875 6.05464 16.6466 4.78063 14.9838C3.56142 13.3926 2.52289 11.6719 2.05949 9.75518C1.09644 5.77203 4.53414 1.75088 8.99975 1.75088Z" fill="#FDFDFD"/>
</svg>
